<svg width="658" height="595" viewBox="0 0 658 595" fill="none" xmlns="http://www.w3.org/2000/svg">
<g filter="url(#filter0_d_39_216)">
<path d="M343.8 477V155.4H355.8V477H343.8ZM291 477V155.4H303V477H291ZM317.4 477V155.4H329.4V477H317.4ZM370.2 342.6V330.6H464.2C479.4 330.6 493.133 327.267 505.4 320.6C517.933 313.933 527.8 304.467 535 292.2C542.467 279.933 546.2 265.533 546.2 249C546.2 232.467 542.467 218.067 535 205.8C527.8 193.533 517.933 184.067 505.4 177.4C493.133 170.733 479.4 167.4 464.2 167.4H370.2V155.4H464.2C481.533 155.4 497.267 159.4 511.4 167.4C525.8 175.133 537.133 186.067 545.4 200.2C553.933 214.067 558.2 230.333 558.2 249C558.2 267.667 553.933 284.067 545.4 298.2C537.133 312.067 525.8 323 511.4 331C497.267 338.733 481.533 342.6 464.2 342.6H370.2ZM370.2 316.2V304.2H464.2C479.667 304.2 492.733 299.4 503.4 289.8C514.333 279.933 519.8 266.333 519.8 249C519.8 231.667 514.333 218.2 503.4 208.6C492.733 198.733 479.667 193.8 464.2 193.8H370.2V181.8H464.2C476.733 181.8 488.067 184.6 498.2 190.2C508.333 195.533 516.467 203.267 522.6 213.4C528.733 223.267 531.8 235.133 531.8 249C531.8 262.867 528.733 274.867 522.6 285C516.467 294.867 508.333 302.6 498.2 308.2C488.067 313.533 476.733 316.2 464.2 316.2H370.2ZM370.2 289.8V277.8H464.2C472.2 277.8 479 275.533 484.6 271C490.467 266.2 493.4 258.867 493.4 249C493.4 238.867 490.467 231.533 484.6 227C479 222.467 472.2 220.2 464.2 220.2H370.2V208.2H464.2C475.667 208.2 485.4 211.667 493.4 218.6C501.4 225.533 505.4 235.667 505.4 249C505.4 262.333 501.4 272.467 493.4 279.4C485.4 286.333 475.667 289.8 464.2 289.8H370.2ZM369 477V465H466.2C485.667 465 502.333 461.267 516.2 453.8C530.333 446.067 541.133 435.667 548.6 422.6C556.333 409.267 560.2 394.2 560.2 377.4C560.2 367 558.867 357.133 556.2 347.8C553.8 338.2 549.933 329.8 544.6 322.6C546.2 321.267 547.667 319.933 549 318.6C550.6 317 551.933 315.267 553 313.4C565.8 330.2 572.2 351.533 572.2 377.4C572.2 396.333 567.8 413.4 559 428.6C550.467 443.533 538.2 455.4 522.2 464.2C506.467 472.733 487.8 477 466.2 477H369ZM369 450.6V438.6H466.2C488.333 438.6 505.133 432.867 516.6 421.4C528.067 409.933 533.8 395.267 533.8 377.4C533.8 370.467 533 363.8 531.4 357.4C529.8 350.733 527.533 344.867 524.6 339.8C526.733 338.733 528.6 337.533 530.2 336.2C531.8 334.867 533.133 333.667 534.2 332.6C537.933 338.467 540.733 345.267 542.6 353C544.733 360.733 545.8 368.867 545.8 377.4C545.8 398.467 538.867 415.933 525 429.8C511.133 443.667 491.533 450.6 466.2 450.6H369ZM369 424.2V412.2H466.2C480.867 412.2 491.4 409 497.8 402.6C504.2 396.2 507.4 387.8 507.4 377.4C507.4 367.533 504.867 359 499.8 351.8C501.667 351.267 503.533 350.6 505.4 349.8C507.267 348.733 509.133 347.667 511 346.6C516.6 355.667 519.4 365.933 519.4 377.4C519.4 391.267 515 402.6 506.2 411.4C497.667 419.933 484.333 424.2 466.2 424.2H369Z" fill="#F5DEB3"/>
<path d="M111.95 29H137.45C146.75 29 153.7 31.15 158.3 35.45C162.9 39.65 165.2 46.3 165.2 55.4C165.2 60.4 164.25 65 162.35 69.2C160.55 73.3 158.25 76.3 155.45 78.2C159.35 80.3 162.55 83.45 165.05 87.65C167.65 91.85 168.95 96.65 168.95 102.05C168.95 111.25 166.65 118.9 162.05 125C157.55 131 148.6 134 135.2 134H111.95V29ZM134.6 72.95C140.6 72.95 145.25 71.45 148.55 68.45C151.85 65.35 153.5 60.9 153.5 55.1C153.5 49.4 151.9 45.3 148.7 42.8C145.5 40.2 140.8 38.9 134.6 38.9H125.15V72.95H134.6ZM134.45 124.1C141.75 124.1 147.2 122.4 150.8 119C154.5 115.5 156.35 110 156.35 102.5C156.35 95.8 154.2 90.9 149.9 87.8C145.6 84.7 140.5 83.15 134.6 83.15H125.15V124.1H134.45ZM184.899 134V29H198.099V134H184.899ZM244.205 134C235.105 134 228.055 131.7 223.055 127.1C218.055 122.5 215.555 115.75 215.555 106.85V56C215.555 47.2 218.255 40.5 223.655 35.9C229.055 31.3 236.405 29 245.705 29H267.755V39.05H244.205C239.605 39.05 235.855 40.4 232.955 43.1C230.155 45.7 228.755 49.2 228.755 53.6V109.55C228.755 114.05 230.105 117.6 232.805 120.2C235.505 122.8 239.105 124.1 243.605 124.1H257.555V82.85H244.055V72.95H270.755V134H244.205ZM289.196 29H314.696C323.996 29 330.946 31.15 335.546 35.45C340.146 39.65 342.446 46.3 342.446 55.4C342.446 60.4 341.496 65 339.596 69.2C337.796 73.3 335.496 76.3 332.696 78.2C336.596 80.3 339.796 83.45 342.296 87.65C344.896 91.85 346.196 96.65 346.196 102.05C346.196 111.25 343.896 118.9 339.296 125C334.796 131 325.846 134 312.446 134H289.196V29ZM311.846 72.95C317.846 72.95 322.496 71.45 325.796 68.45C329.096 65.35 330.746 60.9 330.746 55.1C330.746 49.4 329.146 45.3 325.946 42.8C322.746 40.2 318.046 38.9 311.846 38.9H302.396V72.95H311.846ZM311.696 124.1C318.996 124.1 324.446 122.4 328.046 119C331.746 115.5 333.596 110 333.596 102.5C333.596 95.8 331.446 90.9 327.146 87.8C322.846 84.7 317.746 83.15 311.846 83.15H302.396V124.1H311.696ZM386.295 135.05C376.995 135.05 369.895 132.7 364.995 128C360.095 123.2 357.645 116.55 357.645 108.05V54.95C357.645 46.45 360.095 39.85 364.995 35.15C369.895 30.35 376.995 27.95 386.295 27.95C395.695 27.95 402.845 30.35 407.745 35.15C412.645 39.85 415.095 46.45 415.095 54.95V108.05C415.095 116.55 412.645 123.2 407.745 128C402.845 132.7 395.695 135.05 386.295 135.05ZM386.295 125.15C390.695 125.15 394.395 123.9 397.395 121.4C400.395 118.8 401.895 115.2 401.895 110.6V52.4C401.895 47.8 400.395 44.25 397.395 41.75C394.395 39.15 390.695 37.85 386.295 37.85C381.895 37.85 378.195 39.15 375.195 41.75C372.295 44.25 370.845 47.8 370.845 52.4V110.6C370.845 115.2 372.295 118.8 375.195 121.4C378.195 123.9 381.895 125.15 386.295 125.15ZM432.308 29H458.408C467.508 29 474.558 31.3 479.558 35.9C484.558 40.5 487.058 47.25 487.058 56.15V106.85C487.058 115.75 484.558 122.5 479.558 127.1C474.558 131.6 467.508 133.9 458.408 134H432.308V29ZM458.408 123.8C463.008 123.8 466.708 122.5 469.508 119.9C472.408 117.2 473.858 113.65 473.858 109.25V53.75C473.858 49.35 472.408 45.85 469.508 43.25C466.708 40.55 463.008 39.2 458.408 39.2H445.658V123.8H458.408ZM513.678 134V92.3L492.528 29H505.728L520.728 78.65L536.028 29H549.228L526.878 92.3V134H513.678Z" fill="#F5DEB3"/>
<path d="M44 573H9V538L16 531H9V524H44V531H17V551L23 545H44V552H17V566H44V573ZM101 572.9H87L68 531.4H64L67 536.4V572.9H59V523.9H73.1L92 565.4H96L93 560.4V523.9H101V572.9ZM147.461 531H132.961V573H124.961V531H110.461V524H147.461V531ZM191.949 573H156.949V538L163.949 531H156.949V524H191.949V531H164.949V551L170.949 545H191.949V552H164.949V566H191.949V573ZM249.949 573H239.749L218.949 552H240.949V531H214.949V573H206.949V537.9L213.949 531H206.949V524H241.949C243.816 524 245.449 524.7 246.849 526.1C248.249 527.5 248.949 529.133 248.949 531V550C248.949 555.333 246.616 558 241.949 558H235.949V559.1L249.949 573ZM292.969 531H278.469V573H270.469V531H255.969V524H292.969V531ZM344.457 573H336.457V559H310.457V573H302.457V531C302.457 529.067 303.124 527.433 304.457 526.1C305.857 524.7 307.524 524 309.457 524H344.457V573ZM336.457 552V531H310.457V558L316.457 552H336.457ZM370.418 573H362.418V524H370.418V573ZM430.395 572.9H416.395L397.395 531.4H393.395L396.395 536.4V572.9H388.395V523.9H402.495L421.395 565.4H425.395L422.395 560.4V523.9H430.395V572.9ZM497.355 572.9H489.355V536.1L492.355 531.1H487.855L475.555 559H469.755L457.855 531.1H453.355L456.355 536.1V572.9H448.355V524H462.655L472.555 547.4H473.555L483.455 524H497.355V572.9ZM550.348 573H515.348V538L522.348 531H515.348V524H550.348V531H523.348V551L529.348 545H550.348V552H523.348V566H550.348V573ZM607.348 572.9H593.348L574.348 531.4H570.348L573.348 536.4V572.9H565.348V523.9H579.448L598.348 565.4H602.348L599.348 560.4V523.9H607.348V572.9ZM653.809 531H639.309V573H631.309V531H616.809V524H653.809V531Z" fill="#F5DEB3"/>
<path d="M303.2 477V155.4H291.2V477H303.2ZM356 477V155.4H344V477H356ZM329.6 477V155.4H317.6V477H329.6ZM276.8 342.6V330.6H182.8C167.6 330.6 153.867 327.267 141.6 320.6C129.067 313.933 119.2 304.467 112 292.2C104.533 279.933 100.8 265.533 100.8 249C100.8 232.467 104.533 218.067 112 205.8C119.2 193.533 129.067 184.067 141.6 177.4C153.867 170.733 167.6 167.4 182.8 167.4H276.8V155.4H182.8C165.467 155.4 149.733 159.4 135.6 167.4C121.2 175.133 109.867 186.067 101.6 200.2C93.0666 214.067 88.8 230.333 88.8 249C88.8 267.667 93.0666 284.067 101.6 298.2C109.867 312.067 121.2 323 135.6 331C149.733 338.733 165.467 342.6 182.8 342.6H276.8ZM276.8 316.2V304.2H182.8C167.333 304.2 154.267 299.4 143.6 289.8C132.667 279.933 127.2 266.333 127.2 249C127.2 231.667 132.667 218.2 143.6 208.6C154.267 198.733 167.333 193.8 182.8 193.8H276.8V181.8H182.8C170.267 181.8 158.933 184.6 148.8 190.2C138.667 195.533 130.533 203.267 124.4 213.4C118.267 223.267 115.2 235.133 115.2 249C115.2 262.867 118.267 274.867 124.4 285C130.533 294.867 138.667 302.6 148.8 308.2C158.933 313.533 170.267 316.2 182.8 316.2H276.8ZM276.8 289.8V277.8H182.8C174.8 277.8 168 275.533 162.4 271C156.533 266.2 153.6 258.867 153.6 249C153.6 238.867 156.533 231.533 162.4 227C168 222.467 174.8 220.2 182.8 220.2H276.8V208.2H182.8C171.333 208.2 161.6 211.667 153.6 218.6C145.6 225.533 141.6 235.667 141.6 249C141.6 262.333 145.6 272.467 153.6 279.4C161.6 286.333 171.333 289.8 182.8 289.8H276.8ZM278 477V465H180.8C161.333 465 144.667 461.267 130.8 453.8C116.667 446.067 105.867 435.667 98.4 422.6C90.6667 409.267 86.8 394.2 86.8 377.4C86.8 367 88.1333 357.133 90.8 347.8C93.2 338.2 97.0666 329.8 102.4 322.6C100.8 321.267 99.3333 319.933 98 318.6C96.4 317 95.0667 315.267 94 313.4C81.2 330.2 74.8 351.533 74.8 377.4C74.8 396.333 79.2 413.4 88 428.6C96.5333 443.533 108.8 455.4 124.8 464.2C140.533 472.733 159.2 477 180.8 477H278ZM278 450.6V438.6H180.8C158.667 438.6 141.867 432.867 130.4 421.4C118.933 409.933 113.2 395.267 113.2 377.4C113.2 370.467 114 363.8 115.6 357.4C117.2 350.733 119.467 344.867 122.4 339.8C120.267 338.733 118.4 337.533 116.8 336.2C115.2 334.867 113.867 333.667 112.8 332.6C109.067 338.467 106.267 345.267 104.4 353C102.267 360.733 101.2 368.867 101.2 377.4C101.2 398.467 108.133 415.933 122 429.8C135.867 443.667 155.467 450.6 180.8 450.6H278ZM278 424.2V412.2H180.8C166.133 412.2 155.6 409 149.2 402.6C142.8 396.2 139.6 387.8 139.6 377.4C139.6 367.533 142.133 359 147.2 351.8C145.333 351.267 143.467 350.6 141.6 349.8C139.733 348.733 137.867 347.667 136 346.6C130.4 355.667 127.6 365.933 127.6 377.4C127.6 391.267 132 402.6 140.8 411.4C149.333 419.933 162.667 424.2 180.8 424.2H278Z" fill="#F5DEB3"/>
<rect width="12" height="160" transform="translate(212 237)" fill="#F5DEB3"/>
<rect width="12" height="160" transform="translate(188 237)" fill="#F5DEB3"/>
<rect width="12" height="160" transform="translate(164 237)" fill="#F5DEB3"/>
<rect width="12" height="160" transform="translate(466 240)" fill="#F5DEB3"/>
<rect width="12" height="160" transform="translate(442 240)" fill="#F5DEB3"/>
<rect width="12" height="160" transform="translate(418 240)" fill="#F5DEB3"/>
<rect x="277" y="465" width="96" height="12" fill="#F5DEB3"/>
<rect x="303" y="412" width="16" height="12" fill="#F5DEB3"/>
<rect x="329" y="412" width="16" height="12" fill="#F5DEB3"/>
<rect x="302" y="438" width="16" height="12" fill="#F5DEB3"/>
<rect x="328" y="438" width="16" height="12" fill="#F5DEB3"/>
</g>
<defs>
<filter id="filter0_d_39_216" x="5" y="27.9502" width="652.809" height="553.05" filterUnits="userSpaceOnUse" color-interpolation-filters="sRGB">
<feFlood flood-opacity="0" result="BackgroundImageFix"/>
<feColorMatrix in="SourceAlpha" type="matrix" values="0 0 0 0 0 0 0 0 0 0 0 0 0 0 0 0 0 0 127 0" result="hardAlpha"/>
<feOffset dy="4"/>
<feGaussianBlur stdDeviation="2"/>
<feComposite in2="hardAlpha" operator="out"/>
<feColorMatrix type="matrix" values="0 0 0 0 0 0 0 0 0 0 0 0 0 0 0 0 0 0 0.25 0"/>
<feBlend mode="normal" in2="BackgroundImageFix" result="effect1_dropShadow_39_216"/>
<feBlend mode="normal" in="SourceGraphic" in2="effect1_dropShadow_39_216" result="shape"/>
</filter>
</defs>
</svg>
