<svg width="101" height="101" viewBox="0 0 101 101" fill="none" xmlns="http://www.w3.org/2000/svg">
<rect x="0.610352" y="0.740234" width="100" height="100" fill="#820C01"/>
<path d="M14.4946 65.4113V64.4221C14.4946 64.3921 14.5246 64.2722 14.5846 64.0623C14.6445 63.8525 14.7195 63.6427 14.8094 63.4328C14.8993 63.193 14.9743 62.9832 15.0342 62.8033C15.0942 62.5935 15.1241 62.4586 15.1241 62.3986C15.1541 62.2787 15.1841 61.9939 15.2141 61.5443C15.274 61.0646 15.334 60.555 15.3939 60.0154C15.4539 59.4758 15.4989 58.9512 15.5288 58.4416C15.5888 57.902 15.6188 57.5123 15.6188 57.2725V48.9989C15.6188 48.819 15.6338 48.5792 15.6637 48.2794C15.7237 47.9796 15.7986 47.6949 15.8886 47.4251C16.0085 47.1253 16.1434 46.8705 16.2933 46.6606C16.4731 46.4208 16.683 46.3009 16.9228 46.3009C17.4624 46.3009 17.867 46.4358 18.1368 46.7056C18.4366 46.9754 18.6614 47.3051 18.8113 47.6948C18.9912 48.0546 19.1111 48.4593 19.1711 48.9089C19.231 49.3586 19.291 49.7633 19.3509 50.123C19.8006 52.3713 20.61 54.4847 21.7791 56.4631C22.9781 58.4416 24.477 60.2403 26.2756 61.859C26.4255 61.9789 26.6204 62.1438 26.8602 62.3536C27.13 62.5635 27.3848 62.7733 27.6246 62.9832C27.9244 63.2529 28.2241 63.5227 28.5239 63.7925C28.6738 63.8825 28.9436 64.0024 29.3333 64.1523C29.723 64.2722 30.1427 64.4071 30.5923 64.5569C31.042 64.7068 31.4616 64.8417 31.8514 64.9616C32.2411 65.0815 32.5258 65.1565 32.7057 65.1865C32.7956 65.1865 33.0205 65.2015 33.3802 65.2314C33.7699 65.2314 34.1746 65.2464 34.5943 65.2764C35.0139 65.2764 35.4036 65.2914 35.7634 65.3214C36.1231 65.3214 36.3479 65.3364 36.4378 65.3663C36.4978 65.3663 36.6777 65.3963 36.9774 65.4563C37.3072 65.4862 37.487 65.5012 37.517 65.5012H38.1016C38.4913 65.5012 38.851 65.4263 39.1807 65.2764C39.5405 65.0965 39.9302 64.9616 40.3498 64.8717C40.7695 64.7518 41.1742 64.6769 41.5639 64.6469C41.9536 64.5869 42.3283 64.437 42.6881 64.1972C43.1977 63.8375 43.6923 63.5078 44.1719 63.208C44.6815 62.8782 45.1462 62.5335 45.5659 62.1738C45.9855 61.814 46.3603 61.4094 46.69 60.9597C47.0497 60.4801 47.3495 59.9255 47.5893 59.296C47.5893 59.266 47.6043 59.1461 47.6343 58.9362C47.6643 58.7264 47.6792 58.5166 47.6792 58.3067C47.7092 58.0669 47.7392 57.8571 47.7692 57.6772C47.7991 57.4674 47.8141 57.3325 47.8141 57.2725C47.8441 57.2126 47.9041 57.0777 47.994 56.8678C48.1139 56.658 48.2338 56.4482 48.3537 56.2383C48.5036 55.9985 48.6235 55.7887 48.7135 55.6088C48.8334 55.399 48.8933 55.279 48.8933 55.2491C48.8933 55.1891 48.9083 54.9493 48.9383 54.5296C48.9683 54.1099 48.9832 53.7802 48.9832 53.5404C48.9832 52.4912 48.8184 51.4869 48.4886 50.5277C48.1589 49.5684 47.7092 48.6841 47.1397 47.8747C46.6001 47.0354 45.9406 46.2859 45.1612 45.6264C44.4117 44.937 43.5874 44.3524 42.6881 43.8728C42.6281 43.8128 42.4033 43.7679 42.0136 43.7379C41.6239 43.6779 41.399 43.618 41.3391 43.558C41.2492 43.528 41.0243 43.4381 40.6646 43.2882C40.3349 43.1084 39.9751 42.9285 39.5854 42.7486C39.1957 42.5388 38.821 42.3589 38.4613 42.209C38.1315 42.0292 37.9217 41.9093 37.8318 41.8493C37.8318 41.8193 37.7269 41.7744 37.517 41.7144C37.3372 41.6545 37.1273 41.5945 36.8875 41.5346C36.6477 41.4446 36.4079 41.3697 36.168 41.3097C35.9582 41.2198 35.8383 41.1748 35.8083 41.1748C35.7783 41.1449 35.6584 41.0849 35.4486 40.995C35.2687 40.8751 35.0589 40.7701 34.8191 40.6802C34.6092 40.5903 34.3994 40.5153 34.1896 40.4554C34.0097 40.3655 33.8748 40.3205 33.7849 40.3205C33.5451 40.2605 33.2603 40.2156 32.9305 40.1856C32.6308 40.1556 32.4509 40.1406 32.3909 40.1406C30.7122 39.7509 28.9286 39.1963 27.04 38.4769C25.1815 37.7275 23.5477 36.9031 22.1388 36.0038C22.0788 35.9738 21.9739 35.8839 21.824 35.734C21.7041 35.5841 21.5692 35.4342 21.4193 35.2843C21.2694 35.1045 21.1196 34.9396 20.9697 34.7897C20.8498 34.6398 20.7748 34.5649 20.7448 34.5649C20.6849 34.5649 20.55 34.5199 20.3402 34.43C20.1303 34.3401 20.0254 34.2801 20.0254 34.2501C19.9654 34.2501 19.9055 34.2052 19.8455 34.1152C19.7856 33.9953 19.7256 33.9354 19.6657 33.9354C19.6357 33.8754 19.5458 33.7255 19.3959 33.4857C19.276 33.2459 19.1411 32.9911 18.9912 32.7213C18.8413 32.4515 18.6914 32.1967 18.5415 31.9569C18.4216 31.7171 18.3467 31.5672 18.3167 31.5072C17.8371 30.7278 17.3275 29.9484 16.7879 29.169C16.2483 28.3896 15.8586 27.5652 15.6188 26.6959C15.379 25.7366 15.1841 24.7324 15.0342 23.6832C14.8843 22.634 14.8094 21.6448 14.8094 20.7155C14.8094 20.026 14.8244 19.2916 14.8544 18.5122C14.8843 17.7328 14.9743 17.0283 15.1241 16.3988C15.1841 16.3388 15.334 16.174 15.5738 15.9042C15.8136 15.6044 15.9335 15.4095 15.9335 15.3196C15.9935 15.2297 16.0684 15.1098 16.1584 14.9599C16.2483 14.78 16.3382 14.6002 16.4281 14.4203C16.5481 14.2404 16.653 14.0906 16.7429 13.9706C16.8328 13.8208 16.8928 13.7308 16.9228 13.7009C18.0919 11.6324 19.5308 9.83381 21.2395 8.30498C22.9482 6.77615 24.9566 5.667 27.2649 4.97752C27.3248 4.97752 27.4897 4.94755 27.7595 4.88759C28.0293 4.79766 28.2091 4.7527 28.2991 4.7527C28.419 4.69274 28.6438 4.6178 28.9736 4.52787C29.3333 4.40796 29.5431 4.34801 29.6031 4.34801C29.633 4.34801 29.7829 4.34801 30.0527 4.34801C30.3225 4.31803 30.6223 4.30304 30.952 4.30304C31.3118 4.27306 31.6715 4.25807 32.0312 4.25807C32.3909 4.2281 32.6757 4.21311 32.8856 4.21311C33.0055 4.21311 33.2003 4.2281 33.4701 4.25807C33.7399 4.28805 34.0247 4.31803 34.3245 4.34801C34.6542 4.34801 34.954 4.36299 35.2238 4.39297C35.5235 4.42295 35.7484 4.43794 35.8983 4.43794C36.1081 4.49789 36.3479 4.57283 36.6177 4.66277C36.9175 4.72272 37.0973 4.7527 37.1573 4.7527C37.6669 4.78267 38.1016 4.81265 38.4613 4.84263C38.851 4.84263 39.2407 4.88759 39.6304 4.97752C40.0201 5.03748 40.4398 5.15739 40.8894 5.33725C41.3691 5.48713 41.9686 5.72695 42.6881 6.0567C43.4375 6.41642 44.127 6.76116 44.7565 7.09091C45.416 7.42066 45.8656 7.64548 46.1054 7.76539C46.1654 7.82535 46.3453 7.96024 46.645 8.17008C46.9448 8.34994 47.0947 8.48484 47.0947 8.57477H47.7242C48.054 8.57477 48.3387 8.49983 48.5786 8.34995C48.8184 8.20006 49.0282 8.0202 49.2081 7.81036C49.4179 7.60052 49.6128 7.37569 49.7926 7.13587C49.9725 6.86608 50.1673 6.64125 50.3772 6.46139C50.4371 6.37146 50.557 6.20658 50.7369 5.96677C50.9467 5.72695 51.1716 5.47215 51.4114 5.20235C51.6812 4.93256 51.921 4.69274 52.1308 4.4829C52.3707 4.24309 52.5355 4.07821 52.6255 3.98828H53.0301C53.3599 3.98828 53.5997 4.13817 53.7496 4.43794C53.8995 4.73771 53.9894 5.05247 54.0194 5.38222C54.0194 5.41219 54.0344 5.57707 54.0644 5.87684C54.0943 6.14663 54.1243 6.46139 54.1543 6.82111C54.1843 7.18084 54.2142 7.55555 54.2442 7.94525C54.2742 8.30498 54.3042 8.58976 54.3342 8.7996V9.20429C54.2442 9.83381 54.1543 10.7181 54.0644 11.8573C53.9744 12.9964 53.8695 14.1355 53.7496 15.2746C53.6597 16.4138 53.5697 17.433 53.4798 18.3323C53.4199 19.2016 53.3749 19.7113 53.3449 19.8611C53.255 20.6405 53.0302 21.36 52.6704 22.0195C52.3407 22.649 51.7261 22.9638 50.8268 22.9638C50.647 22.9638 50.3622 22.9488 49.9725 22.9188C49.6128 22.8888 49.358 22.7689 49.2081 22.5591C48.8483 22.1094 48.5486 21.6298 48.3088 21.1202C48.0989 20.6106 47.8891 20.1159 47.6792 19.6363C47.4694 19.1267 47.2446 18.6171 47.0048 18.1075C46.7649 17.5979 46.4652 17.1182 46.1054 16.6686C45.6858 16.159 45.2511 15.6194 44.8014 15.0498C44.3818 14.4803 43.9321 13.9257 43.4525 13.3861C42.9728 12.8165 42.4782 12.2769 41.9686 11.7673C41.459 11.2577 40.9194 10.8081 40.3498 10.4184C40.2899 10.4184 40.185 10.4034 40.0351 10.3734C39.9152 10.3134 39.7803 10.2535 39.6304 10.1935C39.4805 10.1336 39.3306 10.0736 39.1807 10.0137C39.0608 9.95372 38.9859 9.90875 38.9559 9.87878C38.896 9.8488 38.791 9.77386 38.6412 9.65395C38.4913 9.50406 38.3114 9.35418 38.1016 9.20429C37.9217 9.02443 37.7418 8.87454 37.562 8.75464C37.3821 8.63473 37.2472 8.57477 37.1573 8.57477C37.1573 8.5448 37.0823 8.51482 36.9325 8.48484C36.7826 8.42489 36.6027 8.37992 36.3929 8.34995C36.183 8.31997 35.9582 8.28999 35.7184 8.26001C35.5086 8.23004 35.3437 8.20006 35.2238 8.17008C35.0739 8.14011 34.8341 8.11013 34.5043 8.08015C34.2046 8.05017 33.8898 8.0202 33.56 7.99022C33.2303 7.93027 32.9155 7.8853 32.6158 7.85532C32.346 7.82535 32.1511 7.79537 32.0312 7.76539H31.5366C29.7679 7.76539 28.2841 8.12512 27.085 8.84457C25.9159 9.53404 24.8667 10.5533 23.9374 11.9022C23.5477 12.4418 23.203 12.8915 22.9032 13.2512C22.6034 13.5809 22.3486 13.9107 22.1388 14.2404C21.9589 14.5402 21.824 14.8999 21.7341 15.3196C21.6442 15.7093 21.5992 16.2339 21.5992 16.8934C21.5992 17.0433 21.5992 17.2082 21.5992 17.388C21.5992 17.5379 21.6142 17.6878 21.6442 17.8377C21.6741 18.0175 21.7041 18.1974 21.7341 18.3773C21.7641 18.5272 21.869 18.797 22.0489 19.1867C22.2287 19.5764 22.4386 19.996 22.6784 20.4457C22.9182 20.8654 23.143 21.2851 23.3529 21.7047C23.5927 22.0944 23.7875 22.3792 23.9374 22.5591C23.9374 22.619 24.0123 22.7389 24.1622 22.9188C24.3421 23.0987 24.5369 23.3085 24.7468 23.5483C24.9566 23.7582 25.1515 23.968 25.3313 24.1778C25.5412 24.3577 25.6911 24.4926 25.781 24.5825C26.9801 25.6617 28.2841 26.546 29.693 27.2355C31.1319 27.895 32.5858 28.4646 34.0547 28.9442C35.5535 29.3938 37.0524 29.8135 38.5512 30.2032C40.0801 30.563 41.5639 30.9976 43.0028 31.5072C43.2426 31.8969 43.5724 32.1218 43.9921 32.1817C44.4117 32.2117 44.8314 32.3316 45.2511 32.5414C45.4909 32.7213 45.8057 32.9162 46.1954 33.126C46.5851 33.3358 46.9748 33.5607 47.3645 33.8005C47.7842 34.0403 48.1889 34.2951 48.5786 34.5649C48.9982 34.8047 49.343 35.0595 49.6128 35.3293C49.7027 35.3893 49.8226 35.4942 49.9725 35.6441C50.1224 35.794 50.2872 35.9588 50.4671 36.1387C50.647 36.2886 50.8118 36.4385 50.9617 36.5883C51.1116 36.7382 51.2315 36.8581 51.3215 36.9481C51.3215 37.038 51.4264 37.2179 51.6362 37.4877C51.8461 37.7574 51.966 37.9223 51.9959 37.9823C52.6854 38.7617 53.3899 39.5261 54.1093 40.2755C54.8588 40.995 55.4283 41.8643 55.818 42.8835C55.878 43.1233 55.9529 43.4081 56.0428 43.7379C56.1628 44.0676 56.2827 44.3974 56.4026 44.7271C56.5225 45.0868 56.6724 45.4765 56.8522 45.8962C56.9721 46.5257 57.0471 47.1403 57.0771 47.7398C57.107 48.3094 57.122 48.8939 57.122 49.4935C57.122 50.2729 57.092 51.0523 57.0321 51.8317C56.9721 52.5811 56.9122 53.3455 56.8522 54.1249C56.5824 54.7844 56.3276 55.399 56.0878 55.9685C55.848 56.5381 55.6082 57.0927 55.3684 57.6322C55.1285 58.1718 54.8737 58.7264 54.6039 59.296C54.3342 59.8356 54.0344 60.4051 53.7046 61.0047C53.6447 61.0346 53.5248 61.1096 53.3449 61.2295C53.195 61.3194 53.0901 61.3944 53.0301 61.4543C52.5505 61.874 52.1308 62.2637 51.7711 62.6234C51.4114 62.9832 51.0517 63.3429 50.6919 63.7026C50.3622 64.0623 49.9875 64.4221 49.5678 64.7818C49.1781 65.1415 48.6985 65.5162 48.1289 65.9059C47.1696 66.5654 46.1054 67.12 44.9363 67.5696C43.7672 67.9893 42.5682 68.364 41.3391 68.6938C40.7396 68.8137 40.2599 68.8736 39.9002 68.8736C39.5704 68.8736 39.1508 68.9936 38.6412 69.2334C38.4913 69.2334 38.2365 69.2334 37.8767 69.2334C37.547 69.2634 37.2023 69.2783 36.8425 69.2783C36.4828 69.2783 36.1531 69.2783 35.8533 69.2783C35.5535 69.3083 35.3437 69.3233 35.2238 69.3233C33.7849 69.3233 32.361 69.2933 30.952 69.2334C29.5731 69.2034 28.2091 69.0235 26.8602 68.6938C26.2906 68.4839 25.6761 68.3041 25.0166 68.1542C24.3871 67.9743 23.7426 67.7645 23.0831 67.5247C22.9931 67.4947 22.9032 67.4497 22.8133 67.3898C22.6334 67.3298 22.5135 67.2699 22.4535 67.2099C22.4236 67.2099 22.3336 67.1949 22.1837 67.165C22.0339 67.135 21.869 67.12 21.6891 67.12C21.5093 67.09 21.3294 67.06 21.1495 67.0301C20.9697 67.0001 20.8348 66.9851 20.7448 66.9851H20.2502C20.1303 67.045 19.8905 67.165 19.5308 67.3448C19.1711 67.5247 18.7664 67.7345 18.3167 67.9743C17.897 68.1842 17.4773 68.379 17.0577 68.5589C16.668 68.7388 16.3832 68.8587 16.2033 68.9186C16.0834 69.0085 15.8886 69.0835 15.6188 69.1434C15.349 69.2034 15.1841 69.2334 15.1241 69.2334C15.0042 69.2334 14.8993 69.0685 14.8094 68.7388C14.7494 68.409 14.6895 68.0343 14.6295 67.6146C14.5995 67.165 14.5696 66.7303 14.5396 66.3106C14.5096 65.8909 14.4946 65.5912 14.4946 65.4113Z" fill="#F5DEB3"/>
<path d="M41.221 96.8175H40.9062C40.7564 96.8475 40.4566 96.8925 40.0069 96.9524C39.5573 97.0424 39.2575 97.1173 39.1076 97.1772H26.4273C26.2774 97.1772 26.0976 97.1173 25.8877 96.9974C25.7079 96.8775 25.528 96.7276 25.3481 96.5477C25.1683 96.3679 25.0184 96.188 24.8985 96.0081C24.7786 95.8283 24.7186 95.6784 24.7186 95.5585C24.7186 95.4686 24.7936 95.3786 24.9435 95.2887C25.1233 95.1988 25.3182 95.1238 25.528 95.0639C25.7378 94.9739 25.9327 94.914 26.1126 94.884C26.2924 94.824 26.3973 94.7941 26.4273 94.7941C27.2967 94.3744 28.106 94.0896 28.8555 93.9397C29.6349 93.7599 30.4592 93.6699 31.3286 93.6699H32.2728C32.3928 93.61 32.5277 93.4751 32.6775 93.2652C32.8274 93.0254 32.9323 92.8306 32.9923 92.6807C32.9923 92.5908 33.0073 92.4109 33.0373 92.1411C33.0972 91.8713 33.1422 91.6015 33.1722 91.3317C33.2021 91.0319 33.2321 90.7472 33.2621 90.4774C33.2921 90.2076 33.3071 90.0277 33.3071 89.9378V86.0707C33.3071 86.0408 33.322 85.9358 33.352 85.756C33.382 85.5461 33.412 85.3363 33.442 85.1265C33.5019 84.8866 33.5469 84.6768 33.5768 84.4969C33.6368 84.2871 33.6668 84.1672 33.6668 84.1372V83.8225C33.337 81.844 33.1422 79.9254 33.0822 78.0669C33.0523 76.1783 33.0223 74.2748 32.9923 72.3562C32.9623 71.8466 32.9323 71.0972 32.9024 70.108C32.8724 69.1187 32.8424 68.1145 32.8124 67.0953C32.7825 66.076 32.7375 65.1468 32.6775 64.3074C32.6476 63.468 32.6176 62.9434 32.5876 62.7336C32.5876 62.6736 32.5726 62.5088 32.5426 62.239C32.5127 61.9692 32.4677 61.6844 32.4077 61.3846C32.3778 61.0549 32.3478 60.7551 32.3178 60.4853C32.2878 60.2155 32.2728 60.0506 32.2728 59.9907C32.2728 59.8108 32.3028 59.3462 32.3628 58.5968C32.4227 57.8473 32.4977 57.0529 32.5876 56.2136C32.6775 55.3442 32.7525 54.5349 32.8124 53.7854C32.9024 53.036 32.9623 52.5714 32.9923 52.3915V47.9399C32.9923 47.88 32.9174 47.7001 32.7675 47.4003C32.6476 47.1006 32.5876 46.9207 32.5876 46.8607V44.1178C32.5876 44.0279 32.5726 43.848 32.5426 43.5782C32.5127 43.3085 32.4677 43.0237 32.4077 42.7239C32.3778 42.4241 32.3478 42.1543 32.3178 41.9145C32.2878 41.6447 32.2728 41.4799 32.2728 41.4199C32.2429 41.0002 32.1829 40.5206 32.093 39.981C32.0031 39.4414 31.8532 38.9318 31.6433 38.4522C31.4335 37.9426 31.1637 37.5229 30.8339 37.1931C30.5042 36.8334 30.0845 36.6386 29.5749 36.6086H26.4273C26.1575 36.5486 25.8727 36.4287 25.573 36.2489C25.2732 36.039 24.9734 35.8142 24.6737 35.5744C24.3739 35.3046 24.1041 35.0498 23.8643 34.81C23.6245 34.5701 23.4446 34.3603 23.3247 34.1804V33.7757C23.3846 33.7757 23.4296 33.7458 23.4596 33.6858C23.5195 33.5959 23.5795 33.5209 23.6395 33.461H39.1076C39.1975 33.461 39.4074 33.476 39.7371 33.506C40.0969 33.5359 40.4716 33.5809 40.8613 33.6408C41.251 33.6708 41.6107 33.7008 41.9405 33.7308C42.3002 33.7608 42.525 33.7757 42.6149 33.7757H43.3344C43.7541 33.7757 44.1588 33.7308 44.5485 33.6408C44.9681 33.5209 45.3878 33.461 45.8075 33.461H46.0323C46.1522 33.491 46.3171 33.5209 46.5269 33.5509C46.7668 33.5809 46.9916 33.6109 47.2014 33.6408C47.4412 33.6708 47.6361 33.7008 47.786 33.7308C47.9658 33.7608 48.0558 33.7757 48.0558 33.7757C48.1457 33.7757 48.2356 33.8357 48.3256 33.9556C48.4155 34.0455 48.4605 34.1205 48.4605 34.1804C48.4305 34.2704 48.3855 34.3603 48.3256 34.4502C48.2656 34.5102 48.2206 34.5851 48.1907 34.6751C48.1607 34.765 48.1157 34.8249 48.0558 34.8549C47.696 35.4545 47.2764 35.8741 46.7967 36.114C46.3171 36.3238 45.8075 36.4887 45.2679 36.6086C44.7583 36.6985 44.2337 36.7735 43.6941 36.8334C43.1845 36.8934 42.7199 37.0582 42.3002 37.328C41.8805 37.5678 41.5358 37.9575 41.266 38.4971C41.0262 39.0367 40.9062 39.8311 40.9062 40.8803V41.1051C40.9062 41.1951 40.9212 41.4049 40.9512 41.7347C40.9812 42.0344 41.0112 42.3792 41.0411 42.7689C41.1011 43.1586 41.1461 43.5183 41.176 43.848C41.206 44.1478 41.221 44.3427 41.221 44.4326V49.6486C41.221 49.7385 41.236 50.0083 41.266 50.458C41.3259 50.8777 41.3709 51.3423 41.4009 51.8519C41.4608 52.3615 41.5058 52.8412 41.5358 53.2908C41.5957 53.7405 41.6257 54.0402 41.6257 54.1901V58.5968C41.6257 58.6567 41.6407 58.7616 41.6707 58.9115C41.7006 59.0314 41.7306 59.1663 41.7606 59.3162C41.8205 59.4661 41.8655 59.616 41.8955 59.7659C41.9255 59.8858 41.9405 59.9607 41.9405 59.9907C42.0004 60.2905 42.0304 60.5902 42.0304 60.89C42.0304 61.1898 42.0454 61.4596 42.0753 61.6994C42.1353 61.9392 42.2402 62.1341 42.3901 62.2839C42.54 62.4338 42.7948 62.5088 43.1545 62.5088C43.4243 62.5088 43.6641 62.4338 43.874 62.2839C44.0838 62.1041 44.2637 61.9092 44.4136 61.6994C44.5934 61.4596 44.7433 61.2198 44.8632 60.9799C44.9831 60.7101 45.118 60.4853 45.2679 60.3055C45.9574 59.556 46.5869 58.8666 47.1565 58.237C47.756 57.5775 48.3106 56.933 48.8202 56.3035C49.3298 55.644 49.8244 54.9545 50.3041 54.2351C50.8137 53.4857 51.3383 52.6613 51.8778 51.762C51.9378 51.6721 51.9978 51.5072 52.0577 51.2674C52.1476 50.9976 52.1926 50.8177 52.1926 50.7278C52.3125 50.5779 52.5224 50.3231 52.8221 49.9634C53.1519 49.6036 53.4816 49.2289 53.8114 48.8392C54.1411 48.4195 54.4409 48.0298 54.7107 47.6701C55.0105 47.3104 55.2053 47.0406 55.2952 46.8607C55.3252 46.8308 55.3702 46.7408 55.4301 46.5909C55.4901 46.4411 55.565 46.2912 55.655 46.1413C55.7449 45.9914 55.8198 45.8565 55.8798 45.7366C55.9397 45.5867 55.9847 45.4968 56.0147 45.4668C56.2845 45.0471 56.5543 44.6574 56.8241 44.2977C57.1238 43.908 57.3786 43.5333 57.5885 43.1736C57.8283 42.7839 58.0231 42.3792 58.173 41.9595C58.3229 41.5098 58.3979 41.0152 58.3979 40.4756V39.3964C58.3379 39.2765 58.188 39.0967 57.9482 38.8569C57.7384 38.5871 57.4985 38.3173 57.2288 38.0475C56.9889 37.7777 56.7491 37.5379 56.5093 37.328C56.2695 37.1182 56.1046 36.9683 56.0147 36.8784C55.8048 36.6985 55.5351 36.5636 55.2053 36.4737C54.8756 36.3538 54.5608 36.2339 54.261 36.114C53.9613 35.9641 53.6915 35.7842 53.4516 35.5744C53.2418 35.3645 53.1369 35.0797 53.1369 34.72C53.1369 34.4203 53.2268 34.2104 53.4067 34.0905C53.6165 33.9406 53.8563 33.8357 54.1261 33.7757C54.3959 33.7158 54.6807 33.6708 54.9805 33.6408C55.2802 33.6109 55.5201 33.5509 55.6999 33.461C55.8498 33.5209 56.1496 33.5659 56.5992 33.5959C57.0489 33.6259 57.5735 33.6408 58.173 33.6408C58.7126 33.6408 59.2222 33.6259 59.7019 33.5959C60.2115 33.5659 60.5862 33.5209 60.826 33.461C60.886 33.461 61.0209 33.446 61.2307 33.416C61.4405 33.386 61.6504 33.3561 61.8602 33.3261C62.1 33.2661 62.3099 33.2212 62.4897 33.1912C62.6996 33.1612 62.8195 33.1462 62.8495 33.1462C62.9394 33.1462 63.1342 33.1612 63.434 33.1912C63.7338 33.2212 64.0635 33.2661 64.4233 33.3261C64.783 33.3561 65.1127 33.386 65.4125 33.416C65.7422 33.446 65.9521 33.461 66.042 33.461H70.4936C70.8234 33.1912 71.243 33.0113 71.7526 32.9214C72.2623 32.8315 72.7719 32.7865 73.2815 32.7865C73.6712 32.7865 74.0159 32.8015 74.3157 32.8315C74.6454 32.8315 74.9752 32.8315 75.3049 32.8315H77.1036C77.1335 32.8315 77.2534 32.8614 77.4633 32.9214C77.6731 32.9814 77.8979 33.0413 78.1378 33.1013C78.3776 33.1612 78.6174 33.2362 78.8572 33.3261C79.127 33.386 79.3219 33.431 79.4418 33.461C79.4717 33.461 79.5167 33.5209 79.5767 33.6408C79.6366 33.7308 79.6816 33.7757 79.7116 33.7757V33.9556C79.7116 34.2854 79.6516 34.5402 79.5317 34.72C79.4118 34.8999 79.2469 35.0498 79.0371 35.1697C78.8572 35.2596 78.6474 35.3346 78.4076 35.3945C78.1677 35.4245 77.9279 35.4545 77.6881 35.4844C76.549 35.7542 75.275 36.009 73.866 36.2489C72.4871 36.4887 71.228 36.8034 70.0889 37.1931C69.969 37.2531 69.7442 37.388 69.4144 37.5978C69.0847 37.7777 68.8898 37.9126 68.8299 38.0025C68.7999 38.0025 68.71 38.0475 68.5601 38.1374C68.4102 38.2273 68.2603 38.3323 68.1104 38.4522C67.9605 38.5421 67.8107 38.647 67.6608 38.7669C67.5409 38.8569 67.4659 38.9018 67.4359 38.9018C67.346 38.9618 67.1662 39.0667 66.8964 39.2166C66.6266 39.3365 66.3268 39.4864 65.997 39.6662C65.6973 39.8161 65.4125 39.966 65.1427 40.1159C64.8729 40.2358 64.708 40.3107 64.6481 40.3407C64.5881 40.3407 64.5132 40.3857 64.4233 40.4756C64.3633 40.5656 64.3033 40.6405 64.2434 40.7004C64.1535 40.9103 64.0485 41.0752 63.9286 41.1951C63.8387 41.345 63.7488 41.4649 63.6588 41.5548C63.5989 41.6447 63.5689 41.7047 63.5689 41.7347C63.509 41.8246 63.3591 41.9895 63.1193 42.2293C62.8794 42.4391 62.6246 42.6789 62.3548 42.9487C62.085 43.1885 61.8302 43.4284 61.5904 43.6682C61.3506 43.878 61.2007 44.0279 61.1408 44.1178C60.6611 44.6574 60.2265 45.182 59.8368 45.6916C59.477 46.1713 59.0873 46.6509 58.6677 47.1305C58.278 47.5802 57.8433 48.0149 57.3637 48.4345C56.884 48.8542 56.3294 49.2589 55.6999 49.6486C55.61 50.1582 55.4451 50.5779 55.2053 50.9076C54.9955 51.2374 54.7407 51.5372 54.4409 51.807C54.1711 52.0468 53.8713 52.2866 53.5416 52.5264C53.2118 52.7662 52.8971 53.051 52.5973 53.3807C52.3875 53.5906 52.1177 53.8904 51.7879 54.2801C51.4582 54.6398 51.1434 55.0295 50.8436 55.4492C50.5439 55.8389 50.2891 56.2286 50.0792 56.6183C49.8694 57.008 49.7645 57.3377 49.7645 57.6075C49.7645 57.7874 49.7795 57.9223 49.8094 58.0122C49.8094 58.1021 49.8244 58.1921 49.8544 58.282C49.8844 58.342 49.9743 58.4469 50.1242 58.5968C50.3041 58.7466 50.4839 58.9265 50.6638 59.1363C50.8736 59.3162 51.0685 59.4961 51.2483 59.6759C51.4282 59.8258 51.5331 59.9307 51.5631 59.9907C51.5931 60.0506 51.653 60.1855 51.743 60.3954C51.8629 60.5752 51.9678 60.7851 52.0577 61.0249C52.1776 61.2347 52.2825 61.4446 52.3725 61.6544C52.4624 61.8343 52.5373 61.9392 52.5973 61.9692C52.6273 62.0291 52.7172 62.164 52.8671 62.3739C53.047 62.5837 53.2268 62.8085 53.4067 63.0484C53.6165 63.2882 53.7964 63.513 53.9463 63.7228C54.1261 63.9327 54.246 64.0676 54.306 64.1275C54.336 64.1575 54.3959 64.2624 54.4859 64.4423C54.5758 64.6221 54.6807 64.817 54.8006 65.0268C54.9205 65.2067 55.0254 65.3866 55.1154 65.5664C55.2053 65.7163 55.2653 65.8062 55.2952 65.8362C55.3252 65.8662 55.3852 65.9561 55.4751 66.106C55.595 66.2259 55.6999 66.3608 55.7899 66.5107C55.9098 66.6606 56.0147 66.8105 56.1046 66.9604C56.2245 67.0803 56.3145 67.1702 56.3744 67.2302C56.4344 67.3201 56.6142 67.5449 56.914 67.9046C57.2437 68.2644 57.5885 68.6541 57.9482 69.0737C58.3079 69.4934 58.6377 69.8981 58.9375 70.2878C59.2372 70.6475 59.4321 70.8724 59.522 70.9623C59.9417 71.5918 60.3614 72.3113 60.781 73.1207C61.2007 73.9001 61.6803 74.5895 62.2199 75.1891C62.2799 75.279 62.4448 75.4589 62.7146 75.7287C62.9844 75.9685 63.2691 76.2383 63.5689 76.538C63.8987 76.8378 64.1984 77.1076 64.4682 77.3474C64.738 77.5872 64.9029 77.7371 64.9628 77.7971C64.9928 77.857 65.0378 77.9919 65.0977 78.2018C65.1577 78.4116 65.2176 78.5465 65.2776 78.6065C65.3376 78.6065 65.4275 78.6814 65.5474 78.8313C65.6973 78.9512 65.8472 79.0861 65.997 79.236C66.1769 79.3859 66.3268 79.5357 66.4467 79.6856C66.5666 79.8055 66.6416 79.8805 66.6715 79.9105C66.7015 79.9704 66.7615 80.1053 66.8514 80.3151C66.9713 80.525 67.0912 80.7498 67.2111 80.9896C67.331 81.2294 67.4359 81.4543 67.5259 81.6641C67.6458 81.874 67.7207 81.9939 67.7507 82.0238C67.9006 82.2637 68.0954 82.5934 68.3353 83.0131C68.6051 83.4028 68.8748 83.8075 69.1446 84.2272C69.4444 84.6468 69.7292 85.0365 69.999 85.3963C70.2688 85.726 70.5236 85.9508 70.7634 86.0707C70.8234 86.1307 70.9882 86.2056 71.258 86.2956C71.5578 86.3555 71.7377 86.4005 71.7976 86.4305C71.8576 86.4305 71.9325 86.4904 72.0224 86.6103C72.1423 86.7003 72.2023 86.7752 72.2023 86.8352C72.9817 87.7944 73.7911 88.6937 74.6304 89.5331C75.4698 90.3425 76.3691 91.0469 77.3284 91.6465C77.3584 91.6765 77.4633 91.7214 77.6431 91.7814C77.823 91.8413 78.0029 91.9163 78.1827 92.0062C78.3926 92.0961 78.5874 92.1711 78.7673 92.231C78.9471 92.291 79.0671 92.336 79.127 92.3659C79.127 92.3959 79.172 92.4409 79.2619 92.5008C79.3518 92.5608 79.4568 92.6357 79.5767 92.7257C79.6966 92.7856 79.8015 92.8456 79.8914 92.9055C80.0113 92.9655 80.0863 92.9954 80.1162 92.9954C80.416 93.1753 80.9256 93.3402 81.6451 93.4901C82.3945 93.61 83.1439 93.7748 83.8934 93.9847C84.6428 94.1945 85.3023 94.4793 85.8718 94.839C86.4414 95.1688 86.7262 95.6334 86.7262 96.233C86.7262 96.3229 86.7112 96.4278 86.6812 96.5477C86.6513 96.6676 86.6363 96.7576 86.6363 96.8175C85.8569 96.9974 85.1224 97.1023 84.4329 97.1323C83.7435 97.1623 83.009 97.1772 82.2296 97.1772C81.6001 97.1772 80.9106 97.1623 80.1612 97.1323C79.4118 97.1023 78.7973 96.9974 78.3176 96.8175H69.7742C68.9648 96.8175 68.1854 96.5028 67.4359 95.8732C66.7165 95.2437 66.117 94.6142 65.6373 93.9847C65.6373 93.9547 65.5474 93.8198 65.3675 93.58C65.2176 93.3102 65.0228 93.0254 64.783 92.7257C64.5731 92.3959 64.3483 92.0662 64.1085 91.7364C63.8687 91.4067 63.6888 91.1519 63.5689 90.972C63.1492 90.2825 62.6846 89.638 62.175 89.0385C61.6654 88.4389 61.2157 87.8094 60.826 87.1499C60.796 87.1199 60.7061 87 60.5562 86.7902C60.4363 86.5504 60.3014 86.2956 60.1515 86.0258C60.0316 85.726 59.8967 85.4562 59.7468 85.2164C59.6269 84.9766 59.552 84.8117 59.522 84.7218C59.4321 84.6318 59.2222 84.437 58.8925 84.1372C58.5627 83.8075 58.188 83.4477 57.7683 83.058C57.3786 82.6683 57.0039 82.3086 56.6442 81.9789C56.3145 81.6191 56.1046 81.3943 56.0147 81.3044C55.9547 81.2744 55.8348 81.1395 55.655 80.8997C55.5051 80.6299 55.3852 80.4351 55.2952 80.3151C54.6957 79.2959 54.0362 78.4116 53.3167 77.6622C52.6273 76.8828 51.9378 76.0584 51.2483 75.1891C51.2184 75.0991 51.0984 74.9043 50.8886 74.6045C50.6788 74.3047 50.5439 74.1249 50.4839 74.0649C50.334 73.8551 50.1392 73.5853 49.8994 73.2555C49.6595 72.9258 49.4047 72.5961 49.1349 72.2663C48.8652 71.9366 48.6253 71.6518 48.4155 71.412C48.2057 71.1721 48.0858 71.0223 48.0558 70.9623C48.0558 70.9323 47.9808 70.8874 47.8309 70.8274C47.711 70.7674 47.5612 70.7075 47.3813 70.6475C47.2314 70.5576 47.0815 70.4977 46.9316 70.4677C46.7817 70.4077 46.6918 70.3628 46.6618 70.3328C46.6618 70.3028 46.6169 70.1379 46.5269 69.8382C46.467 69.5084 46.407 69.3136 46.3471 69.2536C46.3471 69.2236 46.2572 69.1487 46.0773 69.0288C45.9274 68.8789 45.7326 68.714 45.4927 68.5342C45.2829 68.3543 45.0581 68.1744 44.8183 67.9946C44.6084 67.8147 44.4435 67.6648 44.3236 67.5449C43.9339 67.2751 43.5592 66.9903 43.1995 66.6906C42.8697 66.3908 42.4501 66.2409 41.9405 66.2409V81.7091C41.9704 81.829 42.0304 82.0538 42.1203 82.3836C42.2102 82.6833 42.2552 82.8932 42.2552 83.0131V87.1499C42.2552 87.2998 42.2852 87.5996 42.3451 88.0492C42.4351 88.4689 42.51 88.9336 42.57 89.4432C42.6599 89.9528 42.7348 90.4624 42.7948 90.972C42.8847 91.4516 42.9597 91.8114 43.0196 92.0512C43.0796 92.4109 43.1995 92.6807 43.3794 92.8605C43.5592 93.0104 43.7691 93.1154 44.0089 93.1753C44.2487 93.2353 44.5185 93.2802 44.8183 93.3102C45.118 93.3102 45.4028 93.3552 45.6726 93.4451C45.7625 93.4751 45.9874 93.535 46.3471 93.625C46.7368 93.7149 47.1415 93.8198 47.5612 93.9397C48.0108 94.0297 48.4155 94.1196 48.7752 94.2095C49.1649 94.2994 49.3898 94.3594 49.4497 94.3894C49.6895 94.4194 49.9593 94.4493 50.2591 94.4793C50.5888 94.5093 50.8886 94.5692 51.1584 94.6592C51.4582 94.7491 51.698 94.899 51.8778 95.1088C52.0877 95.2887 52.1926 95.5435 52.1926 95.8732C52.1926 96.4728 51.9978 96.8325 51.6081 96.9524C51.2184 97.1023 50.7687 97.1772 50.2591 97.1772H48.7752C48.7153 97.1772 48.5954 97.1922 48.4155 97.2222C48.2656 97.2522 48.0858 97.2822 47.8759 97.3121C47.696 97.3721 47.5162 97.4171 47.3363 97.447C47.1864 97.477 47.0965 97.492 47.0665 97.492H46.3471C45.4777 97.492 44.6234 97.3721 43.784 97.1323C42.9747 96.9224 42.1203 96.8175 41.221 96.8175Z" fill="#F5DEB3"/>
</svg>
