<svg width="101" height="102" viewBox="0 0 101 102" fill="none" xmlns="http://www.w3.org/2000/svg">
<rect x="0.469482" y="1.60352" width="5.28737" height="5.59323" rx="2.64369" fill="#D9D9D9"/>
<rect x="0.469482" y="52.1328" width="5.28737" height="5.59323" rx="2.64369" fill="#D9D9D9"/>
<rect x="51.3589" y="52.1328" width="5.28737" height="5.59323" rx="2.64369" fill="#D9D9D9"/>
<rect x="51.3589" y="1.60352" width="5.28737" height="5.59323" rx="2.64369" fill="#D9D9D9"/>
<rect x="0.469482" y="26.8672" width="5.28737" height="5.59323" rx="2.64369" fill="#D9D9D9"/>
<rect x="0.469482" y="77.377" width="5.28737" height="5.59323" rx="2.64369" fill="#D9D9D9"/>
<rect x="51.3589" y="77.377" width="5.28737" height="5.59323" rx="2.64369" fill="#D9D9D9"/>
<rect x="51.3589" y="26.8672" width="5.28737" height="5.59323" rx="2.64369" fill="#D9D9D9"/>
<rect x="25.6904" y="26.8672" width="5.28737" height="5.59323" rx="2.64369" fill="#D9D9D9"/>
<rect x="25.6904" y="77.377" width="5.28737" height="5.59323" rx="2.64369" fill="#D9D9D9"/>
<rect x="76.5815" y="77.377" width="5.28737" height="5.59323" rx="2.64369" fill="#D9D9D9"/>
<rect x="76.5815" y="26.8672" width="5.28737" height="5.59323" rx="2.64369" fill="#D9D9D9"/>
<rect x="25.6904" y="1.60352" width="5.28737" height="5.59323" rx="2.64369" fill="#D9D9D9"/>
<rect x="25.6904" y="52.1328" width="5.28737" height="5.59323" rx="2.64369" fill="#D9D9D9"/>
<rect x="76.5815" y="52.1328" width="5.28737" height="5.59323" rx="2.64369" fill="#D9D9D9"/>
<rect x="76.5815" y="1.60352" width="5.28737" height="5.59323" rx="2.64369" fill="#D9D9D9"/>
<rect x="0.469482" y="14.2363" width="5.28737" height="5.59323" rx="2.64369" fill="#D9D9D9"/>
<rect x="0.469482" y="64.7637" width="5.28737" height="5.59323" rx="2.64369" fill="#D9D9D9"/>
<rect x="51.3589" y="64.7637" width="5.28737" height="5.59323" rx="2.64369" fill="#D9D9D9"/>
<rect x="51.3589" y="14.2363" width="5.28737" height="5.59323" rx="2.64369" fill="#D9D9D9"/>
<rect x="0.469482" y="39.5" width="5.28737" height="5.59323" rx="2.64369" fill="#D9D9D9"/>
<rect x="0.469482" y="90.0098" width="5.28737" height="5.59323" rx="2.64369" fill="#D9D9D9"/>
<rect x="51.3589" y="90.0098" width="5.28737" height="5.59323" rx="2.64369" fill="#D9D9D9"/>
<rect x="51.3589" y="39.5" width="5.28737" height="5.59323" rx="2.64369" fill="#D9D9D9"/>
<rect x="25.6904" y="39.5" width="5.28737" height="5.59323" rx="2.64369" fill="#D9D9D9"/>
<rect x="25.6904" y="90.0098" width="5.28737" height="5.59323" rx="2.64369" fill="#D9D9D9"/>
<rect x="76.5815" y="90.0098" width="5.28737" height="5.59323" rx="2.64369" fill="#D9D9D9"/>
<rect x="76.5815" y="39.5" width="5.28737" height="5.59323" rx="2.64369" fill="#D9D9D9"/>
<rect x="25.6904" y="14.2363" width="5.28737" height="5.59323" rx="2.64369" fill="#D9D9D9"/>
<rect x="25.6904" y="64.7637" width="5.28737" height="5.59323" rx="2.64369" fill="#D9D9D9"/>
<rect x="76.5815" y="64.7637" width="5.28737" height="5.59323" rx="2.64369" fill="#D9D9D9"/>
<rect x="76.5815" y="14.2363" width="5.28737" height="5.59323" rx="2.64369" fill="#D9D9D9"/>
<rect x="13.3047" y="14.2363" width="5.28737" height="5.59323" rx="2.64369" fill="#D9D9D9"/>
<rect x="13.3047" y="64.7637" width="5.28737" height="5.59323" rx="2.64369" fill="#D9D9D9"/>
<rect x="64.1941" y="64.7637" width="5.28737" height="5.59323" rx="2.64369" fill="#D9D9D9"/>
<rect x="64.1941" y="14.2363" width="5.28737" height="5.59323" rx="2.64369" fill="#D9D9D9"/>
<rect x="13.3047" y="39.5" width="5.28737" height="5.59323" rx="2.64369" fill="#D9D9D9"/>
<rect x="13.3047" y="90.0098" width="5.28737" height="5.59323" rx="2.64369" fill="#D9D9D9"/>
<rect x="64.1941" y="90.0098" width="5.28737" height="5.59323" rx="2.64369" fill="#D9D9D9"/>
<rect x="64.1941" y="39.5" width="5.28737" height="5.59323" rx="2.64369" fill="#D9D9D9"/>
<rect x="38.5256" y="39.5" width="5.28737" height="5.59323" rx="2.64369" fill="#D9D9D9"/>
<rect x="38.5256" y="90.0098" width="5.28737" height="5.59323" rx="2.64369" fill="#D9D9D9"/>
<rect x="89.415" y="90.0098" width="5.28737" height="5.59323" rx="2.64369" fill="#D9D9D9"/>
<rect x="89.415" y="39.5" width="5.28737" height="5.59323" rx="2.64369" fill="#D9D9D9"/>
<rect x="38.5256" y="14.2363" width="5.28737" height="5.59323" rx="2.64369" fill="#D9D9D9"/>
<rect x="38.5256" y="64.7637" width="5.28737" height="5.59323" rx="2.64369" fill="#D9D9D9"/>
<rect x="89.415" y="64.7637" width="5.28737" height="5.59323" rx="2.64369" fill="#D9D9D9"/>
<rect x="89.415" y="14.2363" width="5.28737" height="5.59323" rx="2.64369" fill="#D9D9D9"/>
<rect x="13.3047" y="1.60352" width="5.28737" height="5.59323" rx="2.64369" fill="#D9D9D9"/>
<rect x="13.3047" y="52.1328" width="5.28737" height="5.59323" rx="2.64369" fill="#D9D9D9"/>
<rect x="64.1941" y="52.1328" width="5.28737" height="5.59323" rx="2.64369" fill="#D9D9D9"/>
<rect x="64.1941" y="1.60352" width="5.28737" height="5.59323" rx="2.64369" fill="#D9D9D9"/>
<rect x="13.3047" y="26.8672" width="5.28737" height="5.59323" rx="2.64369" fill="#D9D9D9"/>
<rect x="13.3047" y="77.377" width="5.28737" height="5.59323" rx="2.64369" fill="#D9D9D9"/>
<rect x="64.1941" y="77.377" width="5.28737" height="5.59323" rx="2.64369" fill="#D9D9D9"/>
<rect x="64.1941" y="26.8672" width="5.28737" height="5.59323" rx="2.64369" fill="#D9D9D9"/>
<rect x="38.5256" y="26.8672" width="5.28737" height="5.59323" rx="2.64369" fill="#D9D9D9"/>
<rect x="38.5256" y="77.377" width="5.28737" height="5.59323" rx="2.64369" fill="#D9D9D9"/>
<rect x="89.415" y="77.377" width="5.28737" height="5.59323" rx="2.64369" fill="#D9D9D9"/>
<rect x="89.415" y="26.8672" width="5.28737" height="5.59323" rx="2.64369" fill="#D9D9D9"/>
<rect x="38.5256" y="1.60352" width="5.28737" height="5.59323" rx="2.64369" fill="#D9D9D9"/>
<rect x="38.5256" y="52.1328" width="5.28737" height="5.59323" rx="2.64369" fill="#D9D9D9"/>
<rect x="89.415" y="52.1328" width="5.28737" height="5.59323" rx="2.64369" fill="#D9D9D9"/>
<rect x="89.415" y="1.60352" width="5.28737" height="5.59323" rx="2.64369" fill="#D9D9D9"/>
<rect x="6.23511" y="7.60547" width="5.28737" height="5.59323" rx="2.64369" fill="#D9D9D9"/>
<rect x="6.23511" y="58.1152" width="5.28737" height="5.59323" rx="2.64369" fill="#D9D9D9"/>
<rect x="57.126" y="58.1152" width="5.28737" height="5.59323" rx="2.64369" fill="#D9D9D9"/>
<rect x="57.126" y="7.60547" width="5.28737" height="5.59323" rx="2.64369" fill="#D9D9D9"/>
<rect x="6.23511" y="32.8516" width="5.28737" height="5.59323" rx="2.64369" fill="#D9D9D9"/>
<rect x="6.23511" y="83.3789" width="5.28737" height="5.59323" rx="2.64369" fill="#D9D9D9"/>
<rect x="57.126" y="83.3789" width="5.28737" height="5.59323" rx="2.64369" fill="#D9D9D9"/>
<rect x="57.126" y="32.8516" width="5.28737" height="5.59323" rx="2.64369" fill="#D9D9D9"/>
<rect x="31.4558" y="32.8516" width="5.28737" height="5.59323" rx="2.64369" fill="#D9D9D9"/>
<rect x="31.4558" y="83.3789" width="5.28737" height="5.59323" rx="2.64369" fill="#D9D9D9"/>
<rect x="82.3472" y="83.3789" width="5.28737" height="5.59323" rx="2.64369" fill="#D9D9D9"/>
<rect x="82.3472" y="32.8516" width="5.28737" height="5.59323" rx="2.64369" fill="#D9D9D9"/>
<rect x="31.4558" y="7.60547" width="5.28737" height="5.59323" rx="2.64369" fill="#D9D9D9"/>
<rect x="31.4558" y="58.1152" width="5.28737" height="5.59323" rx="2.64369" fill="#D9D9D9"/>
<rect x="82.3472" y="58.1152" width="5.28737" height="5.59323" rx="2.64369" fill="#D9D9D9"/>
<rect x="82.3472" y="7.60547" width="5.28737" height="5.59323" rx="2.64369" fill="#D9D9D9"/>
<rect x="6.23511" y="20.2188" width="5.28737" height="5.59323" rx="2.64369" fill="#D9D9D9"/>
<rect x="6.23511" y="70.748" width="5.28737" height="5.59323" rx="2.64369" fill="#D9D9D9"/>
<rect x="57.126" y="70.748" width="5.28737" height="5.59323" rx="2.64369" fill="#D9D9D9"/>
<rect x="57.126" y="20.2188" width="5.28737" height="5.59323" rx="2.64369" fill="#D9D9D9"/>
<rect x="6.23511" y="45.4863" width="5.28737" height="5.59323" rx="2.64369" fill="#D9D9D9"/>
<rect x="6.23511" y="96.0117" width="5.28737" height="5.59323" rx="2.64369" fill="#D9D9D9"/>
<rect x="57.126" y="96.0117" width="5.28737" height="5.59323" rx="2.64369" fill="#D9D9D9"/>
<rect x="57.126" y="45.4863" width="5.28737" height="5.59323" rx="2.64369" fill="#D9D9D9"/>
<rect x="31.4558" y="45.4863" width="5.28737" height="5.59323" rx="2.64369" fill="#D9D9D9"/>
<rect x="31.4558" y="96.0117" width="5.28737" height="5.59323" rx="2.64369" fill="#D9D9D9"/>
<rect x="82.3472" y="96.0117" width="5.28737" height="5.59323" rx="2.64369" fill="#D9D9D9"/>
<rect x="82.3472" y="45.4863" width="5.28737" height="5.59323" rx="2.64369" fill="#D9D9D9"/>
<rect x="31.4558" y="20.2188" width="5.28737" height="5.59323" rx="2.64369" fill="#D9D9D9"/>
<rect x="31.4558" y="70.748" width="5.28737" height="5.59323" rx="2.64369" fill="#D9D9D9"/>
<rect x="82.3472" y="70.748" width="5.28737" height="5.59323" rx="2.64369" fill="#D9D9D9"/>
<rect x="82.3472" y="20.2188" width="5.28737" height="5.59323" rx="2.64369" fill="#D9D9D9"/>
<rect x="19.0703" y="20.2188" width="5.28737" height="5.59323" rx="2.64369" fill="#D9D9D9"/>
<rect x="19.0703" y="70.748" width="5.28737" height="5.59323" rx="2.64369" fill="#D9D9D9"/>
<rect x="69.9595" y="70.748" width="5.28737" height="5.59323" rx="2.64369" fill="#D9D9D9"/>
<rect x="69.9595" y="20.2188" width="5.28737" height="5.59323" rx="2.64369" fill="#D9D9D9"/>
<rect x="19.0703" y="45.4863" width="5.28737" height="5.59323" rx="2.64369" fill="#D9D9D9"/>
<rect x="19.0703" y="96.0117" width="5.28737" height="5.59323" rx="2.64369" fill="#D9D9D9"/>
<rect x="69.9595" y="96.0117" width="5.28737" height="5.59323" rx="2.64369" fill="#D9D9D9"/>
<rect x="69.9595" y="45.4863" width="5.28737" height="5.59323" rx="2.64369" fill="#D9D9D9"/>
<rect x="44.291" y="45.4863" width="5.28737" height="5.59323" rx="2.64369" fill="#D9D9D9"/>
<rect x="44.291" y="96.0117" width="5.28737" height="5.59323" rx="2.64369" fill="#D9D9D9"/>
<rect x="95.1821" y="96.0117" width="5.28737" height="5.59323" rx="2.64369" fill="#D9D9D9"/>
<rect x="95.1821" y="45.4863" width="5.28737" height="5.59323" rx="2.64369" fill="#D9D9D9"/>
<rect x="44.291" y="20.2188" width="5.28737" height="5.59323" rx="2.64369" fill="#D9D9D9"/>
<rect x="44.291" y="70.748" width="5.28737" height="5.59323" rx="2.64369" fill="#D9D9D9"/>
<rect x="95.1821" y="70.748" width="5.28737" height="5.59323" rx="2.64369" fill="#D9D9D9"/>
<rect x="95.1821" y="20.2188" width="5.28737" height="5.59323" rx="2.64369" fill="#D9D9D9"/>
<rect x="19.0703" y="7.60547" width="5.28737" height="5.59323" rx="2.64369" fill="#D9D9D9"/>
<rect x="19.0703" y="58.1152" width="5.28737" height="5.59323" rx="2.64369" fill="#D9D9D9"/>
<rect x="69.9595" y="58.1152" width="5.28737" height="5.59323" rx="2.64369" fill="#D9D9D9"/>
<rect x="69.9595" y="7.60547" width="5.28737" height="5.59323" rx="2.64369" fill="#D9D9D9"/>
<rect x="19.0703" y="32.8516" width="5.28737" height="5.59323" rx="2.64369" fill="#D9D9D9"/>
<rect x="19.0703" y="83.3789" width="5.28737" height="5.59323" rx="2.64369" fill="#D9D9D9"/>
<rect x="69.9595" y="83.3789" width="5.28737" height="5.59323" rx="2.64369" fill="#D9D9D9"/>
<rect x="69.9595" y="32.8516" width="5.28737" height="5.59323" rx="2.64369" fill="#D9D9D9"/>
<rect x="44.291" y="32.8516" width="5.28737" height="5.59323" rx="2.64369" fill="#D9D9D9"/>
<rect x="44.291" y="83.3789" width="5.28737" height="5.59323" rx="2.64369" fill="#D9D9D9"/>
<rect x="95.1821" y="83.3789" width="5.28737" height="5.59323" rx="2.64369" fill="#D9D9D9"/>
<rect x="95.1821" y="32.8516" width="5.28737" height="5.59323" rx="2.64369" fill="#D9D9D9"/>
<rect x="44.291" y="7.60547" width="5.28737" height="5.59323" rx="2.64369" fill="#D9D9D9"/>
<rect x="44.291" y="58.1152" width="5.28737" height="5.59323" rx="2.64369" fill="#D9D9D9"/>
<rect x="95.1821" y="58.1152" width="5.28737" height="5.59323" rx="2.64369" fill="#D9D9D9"/>
<rect x="95.1821" y="7.60547" width="5.28737" height="5.59323" rx="2.64369" fill="#D9D9D9"/>
<rect x="6.23511" y="1.60352" width="5.28737" height="5.59323" rx="2.64369" fill="#D9D9D9"/>
<rect x="6.23511" y="52.1328" width="5.28737" height="5.59323" rx="2.64369" fill="#D9D9D9"/>
<rect x="57.126" y="52.1328" width="5.28737" height="5.59323" rx="2.64369" fill="#D9D9D9"/>
<rect x="57.126" y="1.60352" width="5.28737" height="5.59323" rx="2.64369" fill="#D9D9D9"/>
<rect x="6.23511" y="26.8672" width="5.28737" height="5.59323" rx="2.64369" fill="#D9D9D9"/>
<rect x="6.23511" y="77.377" width="5.28737" height="5.59323" rx="2.64369" fill="#D9D9D9"/>
<rect x="57.126" y="77.377" width="5.28737" height="5.59323" rx="2.64369" fill="#D9D9D9"/>
<rect x="57.126" y="26.8672" width="5.28737" height="5.59323" rx="2.64369" fill="#D9D9D9"/>
<rect x="31.4558" y="26.8672" width="5.28737" height="5.59323" rx="2.64369" fill="#D9D9D9"/>
<rect x="31.4558" y="77.377" width="5.28737" height="5.59323" rx="2.64369" fill="#D9D9D9"/>
<rect x="82.3472" y="77.377" width="5.28737" height="5.59323" rx="2.64369" fill="#D9D9D9"/>
<rect x="82.3472" y="26.8672" width="5.28737" height="5.59323" rx="2.64369" fill="#D9D9D9"/>
<rect x="31.4558" y="1.60352" width="5.28737" height="5.59323" rx="2.64369" fill="#D9D9D9"/>
<rect x="31.4558" y="52.1328" width="5.28737" height="5.59323" rx="2.64369" fill="#D9D9D9"/>
<rect x="82.3472" y="52.1328" width="5.28737" height="5.59323" rx="2.64369" fill="#D9D9D9"/>
<rect x="82.3472" y="1.60352" width="5.28737" height="5.59323" rx="2.64369" fill="#D9D9D9"/>
<rect x="6.23511" y="14.2363" width="5.28737" height="5.59323" rx="2.64369" fill="#D9D9D9"/>
<rect x="6.23511" y="64.7637" width="5.28737" height="5.59323" rx="2.64369" fill="#D9D9D9"/>
<rect x="57.126" y="64.7637" width="5.28737" height="5.59323" rx="2.64369" fill="#D9D9D9"/>
<rect x="57.126" y="14.2363" width="5.28737" height="5.59323" rx="2.64369" fill="#D9D9D9"/>
<rect x="6.23511" y="39.5" width="5.28737" height="5.59323" rx="2.64369" fill="#D9D9D9"/>
<rect x="6.23511" y="90.0098" width="5.28737" height="5.59323" rx="2.64369" fill="#D9D9D9"/>
<rect x="57.126" y="90.0098" width="5.28737" height="5.59323" rx="2.64369" fill="#D9D9D9"/>
<rect x="57.126" y="39.5" width="5.28737" height="5.59323" rx="2.64369" fill="#D9D9D9"/>
<rect x="31.4558" y="39.5" width="5.28737" height="5.59323" rx="2.64369" fill="#D9D9D9"/>
<rect x="31.4558" y="90.0098" width="5.28737" height="5.59323" rx="2.64369" fill="#D9D9D9"/>
<rect x="82.3472" y="90.0098" width="5.28737" height="5.59323" rx="2.64369" fill="#D9D9D9"/>
<rect x="82.3472" y="39.5" width="5.28737" height="5.59323" rx="2.64369" fill="#D9D9D9"/>
<rect x="31.4558" y="14.2363" width="5.28737" height="5.59323" rx="2.64369" fill="#D9D9D9"/>
<rect x="31.4558" y="64.7637" width="5.28737" height="5.59323" rx="2.64369" fill="#D9D9D9"/>
<rect x="82.3472" y="64.7637" width="5.28737" height="5.59323" rx="2.64369" fill="#D9D9D9"/>
<rect x="82.3472" y="14.2363" width="5.28737" height="5.59323" rx="2.64369" fill="#D9D9D9"/>
<rect x="19.0703" y="14.2363" width="5.28737" height="5.59323" rx="2.64369" fill="#D9D9D9"/>
<rect x="19.0703" y="64.7637" width="5.28737" height="5.59323" rx="2.64369" fill="#D9D9D9"/>
<rect x="69.9595" y="64.7637" width="5.28737" height="5.59323" rx="2.64369" fill="#D9D9D9"/>
<rect x="69.9595" y="14.2363" width="5.28737" height="5.59323" rx="2.64369" fill="#D9D9D9"/>
<rect x="19.0703" y="39.5" width="5.28737" height="5.59323" rx="2.64369" fill="#D9D9D9"/>
<rect x="19.0703" y="90.0098" width="5.28737" height="5.59323" rx="2.64369" fill="#D9D9D9"/>
<rect x="69.9595" y="90.0098" width="5.28737" height="5.59323" rx="2.64369" fill="#D9D9D9"/>
<rect x="69.9595" y="39.5" width="5.28737" height="5.59323" rx="2.64369" fill="#D9D9D9"/>
<rect x="44.291" y="39.5" width="5.28737" height="5.59323" rx="2.64369" fill="#D9D9D9"/>
<rect x="44.291" y="90.0098" width="5.28737" height="5.59323" rx="2.64369" fill="#D9D9D9"/>
<rect x="95.1821" y="90.0098" width="5.28737" height="5.59323" rx="2.64369" fill="#D9D9D9"/>
<rect x="95.1821" y="39.5" width="5.28737" height="5.59323" rx="2.64369" fill="#D9D9D9"/>
<rect x="44.291" y="14.2363" width="5.28737" height="5.59323" rx="2.64369" fill="#D9D9D9"/>
<rect x="44.291" y="64.7637" width="5.28737" height="5.59323" rx="2.64369" fill="#D9D9D9"/>
<rect x="95.1821" y="64.7637" width="5.28737" height="5.59323" rx="2.64369" fill="#D9D9D9"/>
<rect x="95.1821" y="14.2363" width="5.28737" height="5.59323" rx="2.64369" fill="#D9D9D9"/>
<rect x="19.0703" y="1.60352" width="5.28737" height="5.59323" rx="2.64369" fill="#D9D9D9"/>
<rect x="19.0703" y="52.1328" width="5.28737" height="5.59323" rx="2.64369" fill="#D9D9D9"/>
<rect x="69.9595" y="52.1328" width="5.28737" height="5.59323" rx="2.64369" fill="#D9D9D9"/>
<rect x="69.9595" y="1.60352" width="5.28737" height="5.59323" rx="2.64369" fill="#D9D9D9"/>
<rect x="19.0703" y="26.8672" width="5.28737" height="5.59323" rx="2.64369" fill="#D9D9D9"/>
<rect x="19.0703" y="77.377" width="5.28737" height="5.59323" rx="2.64369" fill="#D9D9D9"/>
<rect x="69.9595" y="77.377" width="5.28737" height="5.59323" rx="2.64369" fill="#D9D9D9"/>
<rect x="69.9595" y="26.8672" width="5.28737" height="5.59323" rx="2.64369" fill="#D9D9D9"/>
<rect x="44.291" y="26.8672" width="5.28737" height="5.59323" rx="2.64369" fill="#D9D9D9"/>
<rect x="44.291" y="77.377" width="5.28737" height="5.59323" rx="2.64369" fill="#D9D9D9"/>
<rect x="95.1821" y="77.377" width="5.28737" height="5.59323" rx="2.64369" fill="#D9D9D9"/>
<rect x="95.1821" y="26.8672" width="5.28737" height="5.59323" rx="2.64369" fill="#D9D9D9"/>
<rect x="44.291" y="1.60352" width="5.28737" height="5.59323" rx="2.64369" fill="#D9D9D9"/>
<rect x="44.291" y="52.1328" width="5.28737" height="5.59323" rx="2.64369" fill="#D9D9D9"/>
<rect x="95.1821" y="52.1328" width="5.28737" height="5.59323" rx="2.64369" fill="#D9D9D9"/>
<rect x="95.1821" y="1.60352" width="5.28737" height="5.59323" rx="2.64369" fill="#D9D9D9"/>
<rect x="0.469482" y="7.60547" width="5.28737" height="5.59323" rx="2.64369" fill="#D9D9D9"/>
<rect x="0.469482" y="58.1152" width="5.28737" height="5.59323" rx="2.64369" fill="#D9D9D9"/>
<rect x="51.3589" y="58.1152" width="5.28737" height="5.59323" rx="2.64369" fill="#D9D9D9"/>
<rect x="51.3589" y="7.60547" width="5.28737" height="5.59323" rx="2.64369" fill="#D9D9D9"/>
<rect x="0.469482" y="32.8516" width="5.28737" height="5.59323" rx="2.64369" fill="#D9D9D9"/>
<rect x="0.469482" y="83.3789" width="5.28737" height="5.59323" rx="2.64369" fill="#D9D9D9"/>
<rect x="51.3589" y="83.3789" width="5.28737" height="5.59323" rx="2.64369" fill="#D9D9D9"/>
<rect x="51.3589" y="32.8516" width="5.28737" height="5.59323" rx="2.64369" fill="#D9D9D9"/>
<rect x="25.6904" y="32.8516" width="5.28737" height="5.59323" rx="2.64369" fill="#D9D9D9"/>
<rect x="25.6904" y="83.3789" width="5.28737" height="5.59323" rx="2.64369" fill="#D9D9D9"/>
<rect x="76.5815" y="83.3789" width="5.28737" height="5.59323" rx="2.64369" fill="#D9D9D9"/>
<rect x="76.5815" y="32.8516" width="5.28737" height="5.59323" rx="2.64369" fill="#D9D9D9"/>
<rect x="25.6904" y="7.60547" width="5.28737" height="5.59323" rx="2.64369" fill="#D9D9D9"/>
<rect x="25.6904" y="58.1152" width="5.28737" height="5.59323" rx="2.64369" fill="#D9D9D9"/>
<rect x="76.5815" y="58.1152" width="5.28737" height="5.59323" rx="2.64369" fill="#D9D9D9"/>
<rect x="76.5815" y="7.60547" width="5.28737" height="5.59323" rx="2.64369" fill="#D9D9D9"/>
<rect x="0.469482" y="20.2188" width="5.28737" height="5.59323" rx="2.64369" fill="#D9D9D9"/>
<rect x="0.469482" y="70.748" width="5.28737" height="5.59323" rx="2.64369" fill="#D9D9D9"/>
<rect x="51.3589" y="70.748" width="5.28737" height="5.59323" rx="2.64369" fill="#D9D9D9"/>
<rect x="51.3589" y="20.2188" width="5.28737" height="5.59323" rx="2.64369" fill="#D9D9D9"/>
<rect x="0.469482" y="45.4863" width="5.28737" height="5.59323" rx="2.64369" fill="#D9D9D9"/>
<rect x="0.469482" y="96.0117" width="5.28737" height="5.59323" rx="2.64369" fill="#D9D9D9"/>
<rect x="51.3589" y="96.0117" width="5.28737" height="5.59323" rx="2.64369" fill="#D9D9D9"/>
<rect x="51.3589" y="45.4863" width="5.28737" height="5.59323" rx="2.64369" fill="#D9D9D9"/>
<rect x="25.6904" y="45.4863" width="5.28737" height="5.59323" rx="2.64369" fill="#D9D9D9"/>
<rect x="25.6904" y="96.0117" width="5.28737" height="5.59323" rx="2.64369" fill="#D9D9D9"/>
<rect x="76.5815" y="96.0117" width="5.28737" height="5.59323" rx="2.64369" fill="#D9D9D9"/>
<rect x="76.5815" y="45.4863" width="5.28737" height="5.59323" rx="2.64369" fill="#D9D9D9"/>
<rect x="25.6904" y="20.2188" width="5.28737" height="5.59323" rx="2.64369" fill="#D9D9D9"/>
<rect x="25.6904" y="70.748" width="5.28737" height="5.59323" rx="2.64369" fill="#D9D9D9"/>
<rect x="76.5815" y="70.748" width="5.28737" height="5.59323" rx="2.64369" fill="#D9D9D9"/>
<rect x="76.5815" y="20.2188" width="5.28737" height="5.59323" rx="2.64369" fill="#D9D9D9"/>
<rect x="13.3047" y="20.2188" width="5.28737" height="5.59323" rx="2.64369" fill="#D9D9D9"/>
<rect x="13.3047" y="70.748" width="5.28737" height="5.59323" rx="2.64369" fill="#D9D9D9"/>
<rect x="64.1941" y="70.748" width="5.28737" height="5.59323" rx="2.64369" fill="#D9D9D9"/>
<rect x="64.1941" y="20.2188" width="5.28737" height="5.59323" rx="2.64369" fill="#D9D9D9"/>
<rect x="13.3047" y="45.4863" width="5.28737" height="5.59323" rx="2.64369" fill="#D9D9D9"/>
<rect x="13.3047" y="96.0117" width="5.28737" height="5.59323" rx="2.64369" fill="#D9D9D9"/>
<rect x="64.1941" y="96.0117" width="5.28737" height="5.59323" rx="2.64369" fill="#D9D9D9"/>
<rect x="64.1941" y="45.4863" width="5.28737" height="5.59323" rx="2.64369" fill="#D9D9D9"/>
<rect x="38.5256" y="45.4863" width="5.28737" height="5.59323" rx="2.64369" fill="#D9D9D9"/>
<rect x="38.5256" y="96.0117" width="5.28737" height="5.59323" rx="2.64369" fill="#D9D9D9"/>
<rect x="89.415" y="96.0117" width="5.28737" height="5.59323" rx="2.64369" fill="#D9D9D9"/>
<rect x="89.415" y="45.4863" width="5.28737" height="5.59323" rx="2.64369" fill="#D9D9D9"/>
<rect x="38.5256" y="20.2188" width="5.28737" height="5.59323" rx="2.64369" fill="#D9D9D9"/>
<rect x="38.5256" y="70.748" width="5.28737" height="5.59323" rx="2.64369" fill="#D9D9D9"/>
<rect x="89.415" y="70.748" width="5.28737" height="5.59323" rx="2.64369" fill="#D9D9D9"/>
<rect x="89.415" y="20.2188" width="5.28737" height="5.59323" rx="2.64369" fill="#D9D9D9"/>
<rect x="13.3047" y="7.60547" width="5.28737" height="5.59323" rx="2.64369" fill="#D9D9D9"/>
<rect x="13.3047" y="58.1152" width="5.28737" height="5.59323" rx="2.64369" fill="#D9D9D9"/>
<rect x="64.1941" y="58.1152" width="5.28737" height="5.59323" rx="2.64369" fill="#D9D9D9"/>
<rect x="64.1941" y="7.60547" width="5.28737" height="5.59323" rx="2.64369" fill="#D9D9D9"/>
<rect x="13.3047" y="32.8516" width="5.28737" height="5.59323" rx="2.64369" fill="#D9D9D9"/>
<rect x="13.3047" y="83.3789" width="5.28737" height="5.59323" rx="2.64369" fill="#D9D9D9"/>
<rect x="64.1941" y="83.3789" width="5.28737" height="5.59323" rx="2.64369" fill="#D9D9D9"/>
<rect x="64.1941" y="32.8516" width="5.28737" height="5.59323" rx="2.64369" fill="#D9D9D9"/>
<rect x="38.5256" y="32.8516" width="5.28737" height="5.59323" rx="2.64369" fill="#D9D9D9"/>
<rect x="38.5256" y="83.3789" width="5.28737" height="5.59323" rx="2.64369" fill="#D9D9D9"/>
<rect x="89.415" y="83.3789" width="5.28737" height="5.59323" rx="2.64369" fill="#D9D9D9"/>
<rect x="89.415" y="32.8516" width="5.28737" height="5.59323" rx="2.64369" fill="#D9D9D9"/>
<rect x="38.5256" y="7.60547" width="5.28737" height="5.59323" rx="2.64369" fill="#D9D9D9"/>
<rect x="38.5256" y="58.1152" width="5.28737" height="5.59323" rx="2.64369" fill="#D9D9D9"/>
<rect x="89.415" y="58.1152" width="5.28737" height="5.59323" rx="2.64369" fill="#D9D9D9"/>
<rect x="89.415" y="7.60547" width="5.28737" height="5.59323" rx="2.64369" fill="#D9D9D9"/>
<path d="M14.1985 78.2466C9.93719 78.2466 6.80386 78.0586 4.79853 77.6826C2.79319 77.3066 1.79053 76.8679 1.79053 76.3666L5.55053 68.1886C6.99186 68.4393 10.5639 68.6899 16.2665 68.9406C22.0319 69.1286 29.9279 69.2226 39.9545 69.2226H41.7405C44.4352 69.2226 46.3465 68.7526 47.4745 67.8126C48.6025 66.8099 49.1665 65.1493 49.1665 62.8306V60.9506C49.1665 58.7573 48.6965 57.1906 47.7565 56.2506C46.8792 55.3106 44.8739 54.8406 41.7405 54.8406H19.9325C13.6032 54.8406 8.99719 53.6813 6.11453 51.3626C3.23186 48.9813 1.79053 45.1273 1.79053 39.8006V38.2966C1.79053 35.5393 2.29186 33.0013 3.29453 30.6826C4.35986 28.3639 6.14586 26.5153 8.65253 25.1366C11.1592 23.6953 14.6059 22.9746 18.9925 22.9746H44.5605C48.8219 22.9746 52.2685 23.1939 54.9005 23.6326C57.5325 24.0713 58.8485 24.5413 58.8485 25.0426L56.9685 32.9386C55.3392 32.7506 51.6419 32.5626 45.8765 32.3746C40.1112 32.1239 32.3719 31.9986 22.6585 31.9986L21.6245 31.9046C18.7419 31.9046 16.7992 32.4999 15.7965 33.6906C14.7939 34.8186 14.2612 36.2599 14.1985 38.0146V39.6126C14.1985 41.6806 14.7625 43.2473 15.8905 44.3126C17.0812 45.3153 19.0239 45.8166 21.7185 45.8166H42.5865C46.5972 45.8166 50.0125 46.2239 52.8325 47.0386C55.6525 47.8533 57.8145 49.3573 59.3185 51.5506C60.8225 53.6813 61.5745 56.8459 61.5745 61.0446V62.5486C61.5745 67.2486 60.3525 71.0399 57.9085 73.9226C55.5272 76.8053 51.3599 78.2466 45.4065 78.2466H14.1985Z" fill="#820C01"/>
<path d="M89.7521 79.1866C86.6814 79.1866 84.0181 78.5599 81.7621 77.3066C79.5061 76.0533 77.2814 74.3613 75.0881 72.2306C72.7067 69.7239 69.8241 66.8413 66.4401 63.5826C64.8734 61.9533 63.2754 60.6059 61.6461 59.5406C60.0168 58.4753 58.1681 57.6606 56.1001 57.0966C54.0947 56.5326 51.5881 56.2506 48.5801 56.2506H44.1621V78.2466H31.7541V30.4946L30.8141 22.9746H44.1621V47.0386H49.4261C50.6794 47.0386 51.7134 46.8819 52.5281 46.5686C53.3427 46.2553 54.0948 45.7539 54.7841 45.0646C56.5388 43.3099 58.5441 41.1166 60.8001 38.4846C63.0561 35.8526 65.2494 33.1579 67.3801 30.4006C69.5734 27.5806 71.4534 25.1053 73.0201 22.9746H88.2481L84.3941 28.6146C82.6394 30.4319 80.7594 32.4059 78.7541 34.5366C76.7487 36.6673 74.7748 38.7666 72.8321 40.8346C70.8894 42.8399 69.1348 44.6259 67.5681 46.1926C66.0014 47.6966 64.8421 48.7933 64.0901 49.4826C65.7821 50.0466 67.3174 50.7673 68.6961 51.6446C70.1374 52.5219 71.8921 53.8066 73.9601 55.4986C75.5267 56.7519 77.0308 58.0366 78.4721 59.3526C79.9761 60.6686 81.6994 62.2353 83.6421 64.0526C85.8354 66.0579 87.9034 67.5306 89.8461 68.4706C91.7888 69.4106 93.4181 70.0059 94.7341 70.2566C96.1128 70.5073 96.9901 70.6326 97.3661 70.6326L95.4861 78.2466C95.2981 78.4346 94.7341 78.6226 93.7941 78.8106C92.8541 79.0613 91.5067 79.1866 89.7521 79.1866Z" fill="#820C01"/>
<path d="M17.4386 96.5965C16.7853 96.5965 16.2186 96.4632 15.7386 96.1965C15.2586 95.9298 14.7853 95.5698 14.3186 95.1165C13.8119 94.5832 13.1986 93.9698 12.4786 93.2765C12.1453 92.9298 11.8053 92.6432 11.4586 92.4165C11.1119 92.1898 10.7186 92.0165 10.2786 91.8965C9.85192 91.7765 9.31858 91.7165 8.67858 91.7165H7.73858V96.3965H5.09858V86.2365L4.89858 84.6365H7.73858V89.7565H8.85858C9.12525 89.7565 9.34525 89.7232 9.51858 89.6565C9.69192 89.5898 9.85192 89.4832 9.99858 89.3365C10.3719 88.9632 10.7986 88.4965 11.2786 87.9365C11.7586 87.3765 12.2253 86.8032 12.6786 86.2165C13.1453 85.6165 13.5453 85.0898 13.8786 84.6365H17.1186L16.2986 85.8365C15.9253 86.2232 15.5253 86.6432 15.0986 87.0965C14.6719 87.5498 14.2519 87.9965 13.8386 88.4365C13.4253 88.8632 13.0519 89.2432 12.7186 89.5765C12.3853 89.8965 12.1386 90.1298 11.9786 90.2765C12.3386 90.3965 12.6653 90.5498 12.9586 90.7365C13.2653 90.9232 13.6386 91.1965 14.0786 91.5565C14.4119 91.8232 14.7319 92.0965 15.0386 92.3765C15.3586 92.6565 15.7253 92.9898 16.1386 93.3765C16.6053 93.8032 17.0453 94.1165 17.4586 94.3165C17.8719 94.5165 18.2186 94.6432 18.4986 94.6965C18.7919 94.7498 18.9786 94.7765 19.0586 94.7765L18.6586 96.3965C18.6186 96.4365 18.4986 96.4765 18.2986 96.5165C18.0986 96.5698 17.8119 96.5965 17.4386 96.5965ZM20.8556 96.3965V84.6365H23.4956V89.5165H31.3356V84.6365H33.9756V96.3965H31.3356V91.4365H23.4956V96.3965H20.8556ZM40.6437 96.3965C39.7104 96.3965 38.9771 96.2632 38.4437 95.9965C37.9104 95.7298 37.5304 95.3298 37.3037 94.7965C37.0904 94.2632 36.9837 93.6032 36.9837 92.8165V88.1965C36.9837 87.4232 37.0904 86.7765 37.3037 86.2565C37.5171 85.7232 37.8904 85.3232 38.4237 85.0565C38.9571 84.7765 39.6971 84.6365 40.6437 84.6365H46.4837C47.4171 84.6365 48.1437 84.7765 48.6637 85.0565C49.1971 85.3232 49.5704 85.7232 49.7837 86.2565C50.0104 86.7765 50.1237 87.4232 50.1237 88.1965V92.8165C50.1237 93.9898 49.8637 94.8832 49.3437 95.4965C48.8237 96.0965 47.8704 96.3965 46.4837 96.3965H40.6437ZM41.2237 94.4765H45.9237C46.4171 94.4765 46.7971 94.3498 47.0637 94.0965C47.3437 93.8432 47.4837 93.4965 47.4837 93.0565V87.9565C47.4837 87.5698 47.3437 87.2432 47.0637 86.9765C46.7837 86.6965 46.4037 86.5565 45.9237 86.5565H41.2237C40.7437 86.5565 40.3571 86.6832 40.0637 86.9365C39.7704 87.1898 39.6237 87.5298 39.6237 87.9565V93.0565C39.6237 93.5098 39.7637 93.8632 40.0437 94.1165C40.3371 94.3565 40.7304 94.4765 41.2237 94.4765ZM56.0812 96.5965C54.8679 96.5965 54.0212 96.2698 53.5412 95.6165C53.0612 94.9632 52.8212 94.0965 52.8212 93.0165V84.6365H55.4612V93.0965C55.4612 93.7232 55.6146 94.1432 55.9212 94.3565C56.2279 94.5698 56.6079 94.6765 57.0612 94.6765H61.3012C61.7279 94.6765 62.1012 94.5698 62.4212 94.3565C62.7412 94.1298 62.9012 93.7098 62.9012 93.0965V84.6365H65.5412V93.0165C65.5412 93.7365 65.4412 94.3632 65.2412 94.8965C65.0412 95.4298 64.7079 95.8498 64.2412 96.1565C63.7746 96.4498 63.1279 96.5965 62.3012 96.5965H56.0812ZM81.2137 96.5965C80.6804 96.5965 80.1537 96.5165 79.6337 96.3565C79.1271 96.1832 78.5471 95.7698 77.8937 95.1165L76.4537 93.6765C75.8671 93.0765 75.2204 92.6365 74.5137 92.3565C73.8204 92.0765 72.9471 91.9365 71.8937 91.9365H71.2737V96.3965H68.6337V86.2365L68.4337 84.6165H77.2937C78.1471 84.6165 78.8137 84.7298 79.2937 84.9565C79.7871 85.1832 80.1471 85.4832 80.3737 85.8565C80.6137 86.2165 80.7671 86.6032 80.8337 87.0165C80.9004 87.4298 80.9337 87.8232 80.9337 88.1965V88.5765C80.9337 88.8698 80.8937 89.1965 80.8137 89.5565C80.7337 89.9165 80.5804 90.2698 80.3537 90.6165C80.1271 90.9632 79.8004 91.2565 79.3737 91.4965C78.9604 91.7365 78.4137 91.8765 77.7337 91.9165C77.9071 92.0098 78.1271 92.1565 78.3937 92.3565C78.6604 92.5432 78.9337 92.7498 79.2137 92.9765C79.5071 93.2032 79.7737 93.4098 80.0137 93.5965C80.2537 93.7832 80.4404 93.9165 80.5737 93.9965C81.0537 94.2765 81.4804 94.4698 81.8537 94.5765C82.2271 94.6832 82.5337 94.7432 82.7737 94.7565C83.0137 94.7698 83.1537 94.7765 83.1937 94.7765L82.7937 96.3965C82.6737 96.4365 82.4737 96.4765 82.1937 96.5165C81.9137 96.5698 81.5871 96.5965 81.2137 96.5965ZM74.2737 90.1165C74.7804 90.1165 75.2337 90.1098 75.6337 90.0965C76.0337 90.0698 76.3937 90.0432 76.7137 90.0165C77.3004 89.9498 77.7071 89.7898 77.9337 89.5365C78.1737 89.2698 78.2937 88.9298 78.2937 88.5165V88.0565C78.2937 87.6298 78.1804 87.2698 77.9537 86.9765C77.7271 86.6832 77.3204 86.5365 76.7337 86.5365H71.2737V90.0165C71.8604 90.0565 72.4004 90.0832 72.8937 90.0965C73.3871 90.1098 73.8471 90.1165 74.2737 90.1165ZM88.2248 96.3965V91.5165L82.4048 84.6365H85.6048L88.5648 88.3765L89.4848 89.6165H89.6848L90.6048 88.3765L93.5648 84.6365H96.7648L95.9848 85.8365L90.8648 91.5965V96.3965H88.2248Z" fill="#820C01"/>
<path d="M17.3367 19.8145C16.3847 19.8145 15.6847 19.7725 15.2367 19.6885C14.7887 19.6045 14.5647 19.5065 14.5647 19.3945L15.4047 17.5675C15.7267 17.6235 16.5247 17.6795 17.7987 17.7355C19.0867 17.7775 20.8507 17.7985 23.0907 17.7985H23.4897C24.0917 17.7985 24.5187 17.6935 24.7707 17.4835C25.0227 17.2595 25.1487 16.8885 25.1487 16.3705V15.9505C25.1487 15.4605 25.0437 15.1105 24.8337 14.9005C24.6377 14.6905 24.1897 14.5855 23.4897 14.5855H18.6177C17.2037 14.5855 16.1747 14.3265 15.5307 13.8085C14.8867 13.2765 14.5647 12.4155 14.5647 11.2255V10.8895C14.5647 10.2735 14.6767 9.70645 14.9007 9.18845C15.1387 8.67045 15.5377 8.25745 16.0977 7.94945C16.6577 7.62745 17.4277 7.46645 18.4077 7.46645H24.1197C25.0717 7.46645 25.8417 7.51545 26.4297 7.61345C27.0177 7.71145 27.3117 7.81645 27.3117 7.92845L26.8917 9.69245C26.5277 9.65045 25.7017 9.60845 24.4137 9.56645C23.1257 9.51045 21.3967 9.48245 19.2267 9.48245L18.9957 9.46145C18.3517 9.46145 17.9177 9.59445 17.6937 9.86045C17.4697 10.1125 17.3507 10.4345 17.3367 10.8265V11.1835C17.3367 11.6455 17.4627 11.9955 17.7147 12.2335C17.9807 12.4575 18.4147 12.5695 19.0167 12.5695H23.6787C24.5747 12.5695 25.3377 12.6605 25.9677 12.8425C26.5977 13.0245 27.0807 13.3605 27.4167 13.8505C27.7527 14.3265 27.9207 15.0335 27.9207 15.9715V16.3075C27.9207 17.3575 27.6477 18.2045 27.1017 18.8485C26.5697 19.4925 25.6387 19.8145 24.3087 19.8145H17.3367ZM29.1777 19.8145L35.3307 7.46645H39.4677L45.5997 19.8145H42.3657L41.1267 17.1475H33.6087L32.2437 19.8145H29.1777ZM34.3647 15.0895H40.3497L37.4727 9.35645H37.2627L34.3647 15.0895ZM47.4945 19.8145V9.14645L47.2845 7.46645H50.4765L55.2225 15.8665L60.1365 7.46645H62.9715V19.8145H60.1995V11.9815H59.9685L59.1495 13.8085L56.5035 18.5545H53.9625L51.3165 13.8085L50.4765 11.9815H50.2665V19.8145H47.4945ZM66.3363 19.8145V7.46645H69.1083V19.8145H66.3363ZM85.8871 20.0245C85.3271 20.0245 84.7741 19.9405 84.2281 19.7725C83.6961 19.5905 83.0871 19.1565 82.4011 18.4705L80.8891 16.9585C80.2731 16.3285 79.5941 15.8665 78.8521 15.5725C78.1241 15.2785 77.2071 15.1315 76.1011 15.1315H75.4501V19.8145H72.6781V9.14645L72.4681 7.44545H81.7711C82.6671 7.44545 83.3671 7.56445 83.8711 7.80245C84.3891 8.04045 84.7671 8.35545 85.0051 8.74745C85.2571 9.12545 85.4181 9.53145 85.4881 9.96545C85.5581 10.3995 85.5931 10.8125 85.5931 11.2045V11.6035C85.5931 11.9115 85.5511 12.2545 85.4671 12.6325C85.3831 13.0105 85.2221 13.3815 84.9841 13.7455C84.7461 14.1095 84.4031 14.4175 83.9551 14.6695C83.5211 14.9215 82.9471 15.0685 82.2331 15.1105C82.4151 15.2085 82.6461 15.3625 82.9261 15.5725C83.2061 15.7685 83.4931 15.9855 83.7871 16.2235C84.0951 16.4615 84.3751 16.6785 84.6271 16.8745C84.8791 17.0705 85.0751 17.2105 85.2151 17.2945C85.7191 17.5885 86.1671 17.7915 86.5591 17.9035C86.9511 18.0155 87.2731 18.0785 87.5251 18.0925C87.7771 18.1065 87.9241 18.1135 87.9661 18.1135L87.5461 19.8145C87.4201 19.8565 87.2101 19.8985 86.9161 19.9405C86.6221 19.9965 86.2791 20.0245 85.8871 20.0245ZM78.6001 13.2205C79.1321 13.2205 79.6081 13.2135 80.0281 13.1995C80.4481 13.1715 80.8261 13.1435 81.1621 13.1155C81.7781 13.0455 82.2051 12.8775 82.4431 12.6115C82.6951 12.3315 82.8211 11.9745 82.8211 11.5405V11.0575C82.8211 10.6095 82.7021 10.2315 82.4641 9.92345C82.2261 9.61545 81.7991 9.46145 81.1831 9.46145H75.4501V13.1155C76.0661 13.1575 76.6331 13.1855 77.1511 13.1995C77.6691 13.2135 78.1521 13.2205 78.6001 13.2205Z" fill="#820C01"/>
</svg>
