<svg width="101" height="101" viewBox="0 0 101 101" fill="none" xmlns="http://www.w3.org/2000/svg">
<rect x="0.745361" y="0.667969" width="100" height="100" fill="#820C01"/>
<path d="M17.3912 96.157C16.7379 96.157 16.1712 96.0237 15.6912 95.757C15.2112 95.4904 14.7379 95.1304 14.2712 94.677C13.7646 94.1437 13.1512 93.5304 12.4312 92.837C12.0979 92.4904 11.7579 92.2037 11.4112 91.977C11.0646 91.7504 10.6712 91.577 10.2312 91.457C9.80455 91.337 9.27122 91.277 8.63122 91.277H7.69122V95.957H5.05122V85.797L4.85122 84.197H7.69122V89.317H8.81122C9.07789 89.317 9.29789 89.2837 9.47122 89.217C9.64455 89.1504 9.80455 89.0437 9.95122 88.897C10.3246 88.5237 10.7512 88.057 11.2312 87.497C11.7112 86.937 12.1779 86.3637 12.6312 85.777C13.0979 85.177 13.4979 84.6504 13.8312 84.197H17.0712L16.2512 85.397C15.8779 85.7837 15.4779 86.2037 15.0512 86.657C14.6246 87.1104 14.2046 87.557 13.7912 87.997C13.3779 88.4237 13.0046 88.8037 12.6712 89.137C12.3379 89.457 12.0912 89.6904 11.9312 89.837C12.2912 89.957 12.6179 90.1104 12.9112 90.297C13.2179 90.4837 13.5912 90.757 14.0312 91.117C14.3646 91.3837 14.6846 91.657 14.9912 91.937C15.3112 92.217 15.6779 92.5504 16.0912 92.937C16.5579 93.3637 16.9979 93.677 17.4112 93.877C17.8246 94.077 18.1712 94.2037 18.4512 94.257C18.7446 94.3104 18.9312 94.337 19.0112 94.337L18.6112 95.957C18.5712 95.997 18.4512 96.037 18.2512 96.077C18.0512 96.1304 17.7646 96.157 17.3912 96.157ZM20.8083 95.957V84.197H23.4483V89.077H31.2883V84.197H33.9283V95.957H31.2883V90.997H23.4483V95.957H20.8083ZM40.5964 95.957C39.663 95.957 38.9297 95.8237 38.3964 95.557C37.863 95.2904 37.483 94.8904 37.2564 94.357C37.043 93.8237 36.9364 93.1637 36.9364 92.377V87.757C36.9364 86.9837 37.043 86.337 37.2564 85.817C37.4697 85.2837 37.843 84.8837 38.3764 84.617C38.9097 84.337 39.6497 84.197 40.5964 84.197H46.4364C47.3697 84.197 48.0964 84.337 48.6164 84.617C49.1497 84.8837 49.523 85.2837 49.7364 85.817C49.963 86.337 50.0764 86.9837 50.0764 87.757V92.377C50.0764 93.5504 49.8164 94.4437 49.2964 95.057C48.7764 95.657 47.823 95.957 46.4364 95.957H40.5964ZM41.1764 94.037H45.8764C46.3697 94.037 46.7497 93.9104 47.0164 93.657C47.2964 93.4037 47.4364 93.057 47.4364 92.617V87.517C47.4364 87.1304 47.2964 86.8037 47.0164 86.537C46.7364 86.257 46.3564 86.117 45.8764 86.117H41.1764C40.6964 86.117 40.3097 86.2437 40.0164 86.497C39.723 86.7504 39.5764 87.0904 39.5764 87.517V92.617C39.5764 93.0704 39.7164 93.4237 39.9964 93.677C40.2897 93.917 40.683 94.037 41.1764 94.037ZM56.0339 96.157C54.8205 96.157 53.9739 95.8304 53.4939 95.177C53.0139 94.5237 52.7739 93.657 52.7739 92.577V84.197H55.4139V92.657C55.4139 93.2837 55.5672 93.7037 55.8739 93.917C56.1805 94.1304 56.5605 94.237 57.0139 94.237H61.2539C61.6805 94.237 62.0539 94.1304 62.3739 93.917C62.6939 93.6904 62.8539 93.2704 62.8539 92.657V84.197H65.4939V92.577C65.4939 93.297 65.3939 93.9237 65.1939 94.457C64.9939 94.9904 64.6605 95.4104 64.1939 95.717C63.7272 96.0104 63.0805 96.157 62.2539 96.157H56.0339ZM81.1664 96.157C80.633 96.157 80.1064 96.077 79.5864 95.917C79.0797 95.7437 78.4997 95.3304 77.8464 94.677L76.4064 93.237C75.8197 92.637 75.173 92.197 74.4664 91.917C73.773 91.637 72.8997 91.497 71.8464 91.497H71.2264V95.957H68.5864V85.797L68.3864 84.177H77.2464C78.0997 84.177 78.7664 84.2904 79.2464 84.517C79.7397 84.7437 80.0997 85.0437 80.3264 85.417C80.5664 85.777 80.7197 86.1637 80.7864 86.577C80.853 86.9904 80.8864 87.3837 80.8864 87.757V88.137C80.8864 88.4304 80.8464 88.757 80.7664 89.117C80.6864 89.477 80.533 89.8304 80.3064 90.177C80.0797 90.5237 79.753 90.817 79.3264 91.057C78.913 91.297 78.3664 91.437 77.6864 91.477C77.8597 91.5704 78.0797 91.717 78.3464 91.917C78.613 92.1037 78.8864 92.3104 79.1664 92.537C79.4597 92.7637 79.7264 92.9704 79.9664 93.157C80.2064 93.3437 80.393 93.477 80.5264 93.557C81.0064 93.837 81.433 94.0304 81.8064 94.137C82.1797 94.2437 82.4864 94.3037 82.7264 94.317C82.9664 94.3304 83.1064 94.337 83.1464 94.337L82.7464 95.957C82.6264 95.997 82.4264 96.037 82.1464 96.077C81.8664 96.1304 81.5397 96.157 81.1664 96.157ZM74.2264 89.677C74.733 89.677 75.1864 89.6704 75.5864 89.657C75.9864 89.6304 76.3464 89.6037 76.6664 89.577C77.253 89.5104 77.6597 89.3504 77.8864 89.097C78.1264 88.8304 78.2464 88.4904 78.2464 88.077V87.617C78.2464 87.1904 78.133 86.8304 77.9064 86.537C77.6797 86.2437 77.273 86.097 76.6864 86.097H71.2264V89.577C71.813 89.617 72.353 89.6437 72.8464 89.657C73.3397 89.6704 73.7997 89.677 74.2264 89.677ZM88.1775 95.957V91.077L82.3575 84.197H85.5575L88.5175 87.937L89.4375 89.177H89.6375L90.5575 87.937L93.5175 84.197H96.7175L95.9375 85.397L90.8175 91.157V95.957H88.1775Z" fill="#F5DEB3"/>
<path d="M15.6592 79.7349C11.3979 79.7349 8.26455 79.5469 6.25922 79.1709C4.25389 78.7949 3.25122 78.3562 3.25122 77.8549L7.01122 69.6769C8.45255 69.9276 12.0246 70.1782 17.7272 70.4289C23.4926 70.6169 31.3886 70.7109 41.4152 70.7109H43.2012C45.8959 70.7109 47.8072 70.2409 48.9352 69.3009C50.0632 68.2982 50.6272 66.6376 50.6272 64.3189V62.4389C50.6272 60.2456 50.1572 58.6789 49.2172 57.7389C48.3399 56.7989 46.3346 56.3289 43.2012 56.3289H21.3932C15.0639 56.3289 10.4579 55.1696 7.57522 52.8509C4.69255 50.4696 3.25122 46.6156 3.25122 41.2889V39.7849C3.25122 37.0276 3.75255 34.4896 4.75522 32.1709C5.82055 29.8522 7.60655 28.0036 10.1132 26.6249C12.6199 25.1836 16.0666 24.4629 20.4532 24.4629H46.0212C50.2826 24.4629 53.7292 24.6822 56.3612 25.1209C58.9932 25.5596 60.3092 26.0296 60.3092 26.5309L58.4292 34.4269C56.7999 34.2389 53.1026 34.0509 47.3372 33.8629C41.5719 33.6122 33.8326 33.4869 24.1192 33.4869L23.0852 33.3929C20.2026 33.3929 18.2599 33.9882 17.2572 35.1789C16.2546 36.3069 15.7219 37.7482 15.6592 39.5029V41.1009C15.6592 43.1689 16.2232 44.7356 17.3512 45.8009C18.5419 46.8036 20.4846 47.3049 23.1792 47.3049H44.0472C48.0579 47.3049 51.4732 47.7122 54.2932 48.5269C57.1132 49.3416 59.2752 50.8456 60.7792 53.0389C62.2832 55.1696 63.0352 58.3342 63.0352 62.5329V64.0369C63.0352 68.7369 61.8132 72.5282 59.3692 75.4109C56.9879 78.2936 52.8206 79.7349 46.8672 79.7349H15.6592Z" fill="#F5DEB3"/>
<path d="M91.2128 80.6749C88.1421 80.6749 85.4788 80.0482 83.2228 78.7949C80.9668 77.5416 78.7421 75.8496 76.5488 73.7189C74.1674 71.2122 71.2848 68.3296 67.9008 65.0709C66.3341 63.4416 64.7361 62.0942 63.1068 61.0289C61.4774 59.9636 59.6288 59.1489 57.5608 58.5849C55.5554 58.0209 53.0488 57.7389 50.0408 57.7389H45.6228V79.7349H33.2148V31.9829L32.2748 24.4629H45.6228V48.5269H50.8868C52.1401 48.5269 53.1741 48.3702 53.9888 48.0569C54.8034 47.7436 55.5554 47.2422 56.2448 46.5529C57.9994 44.7982 60.0048 42.6049 62.2608 39.9729C64.5168 37.3409 66.7101 34.6462 68.8408 31.8889C71.0341 29.0689 72.9141 26.5936 74.4808 24.4629H89.7088L85.8548 30.1029C84.1001 31.9202 82.2201 33.8942 80.2148 36.0249C78.2094 38.1556 76.2354 40.2549 74.2928 42.3229C72.3501 44.3282 70.5954 46.1142 69.0288 47.6809C67.4621 49.1849 66.3028 50.2816 65.5508 50.9709C67.2428 51.5349 68.7781 52.2556 70.1568 53.1329C71.5981 54.0102 73.3528 55.2949 75.4208 56.9869C76.9874 58.2402 78.4914 59.5249 79.9328 60.8409C81.4368 62.1569 83.1601 63.7236 85.1028 65.5409C87.2961 67.5462 89.3641 69.0189 91.3068 69.9589C93.2494 70.8989 94.8788 71.4942 96.1948 71.7449C97.5734 71.9956 98.4508 72.1209 98.8268 72.1209L96.9468 79.7349C96.7588 79.9229 96.1948 80.1109 95.2548 80.2989C94.3148 80.5496 92.9674 80.6749 91.2128 80.6749Z" fill="#F5DEB3"/>
<path d="M16.5652 19.668C15.6132 19.668 14.9132 19.626 14.4652 19.542C14.0172 19.458 13.7932 19.36 13.7932 19.248L14.6332 17.421C14.9552 17.477 15.7532 17.533 17.0272 17.589C18.3152 17.631 20.0792 17.652 22.3192 17.652H22.7182C23.3202 17.652 23.7472 17.547 23.9992 17.337C24.2512 17.113 24.3772 16.742 24.3772 16.224V15.804C24.3772 15.314 24.2722 14.964 24.0622 14.754C23.8662 14.544 23.4182 14.439 22.7182 14.439H17.8462C16.4322 14.439 15.4032 14.18 14.7592 13.662C14.1152 13.13 13.7932 12.269 13.7932 11.079V10.743C13.7932 10.127 13.9052 9.55997 14.1292 9.04197C14.3672 8.52397 14.7662 8.11097 15.3262 7.80297C15.8862 7.48097 16.6562 7.31997 17.6362 7.31997H23.3482C24.3002 7.31997 25.0702 7.36897 25.6582 7.46697C26.2462 7.56497 26.5402 7.66997 26.5402 7.78197L26.1202 9.54597C25.7562 9.50397 24.9302 9.46197 23.6422 9.41997C22.3542 9.36397 20.6252 9.33597 18.4552 9.33597L18.2242 9.31497C17.5802 9.31497 17.1462 9.44797 16.9222 9.71397C16.6982 9.96597 16.5792 10.288 16.5652 10.68V11.037C16.5652 11.499 16.6912 11.849 16.9432 12.087C17.2092 12.311 17.6432 12.423 18.2452 12.423H22.9072C23.8032 12.423 24.5662 12.514 25.1962 12.696C25.8262 12.878 26.3092 13.214 26.6452 13.704C26.9812 14.18 27.1492 14.887 27.1492 15.825V16.161C27.1492 17.211 26.8762 18.058 26.3302 18.702C25.7982 19.346 24.8672 19.668 23.5372 19.668H16.5652ZM28.4062 19.668L34.5593 7.31997H38.6963L44.8283 19.668H41.5943L40.3553 17.001H32.8373L31.4723 19.668H28.4062ZM33.5933 14.943H39.5783L36.7013 9.20997H36.4913L33.5933 14.943ZM46.723 19.668V8.99997L46.513 7.31997H49.705L54.451 15.72L59.365 7.31997H62.2V19.668H59.428V11.835H59.197L58.378 13.662L55.732 18.408H53.191L50.545 13.662L49.705 11.835H49.495V19.668H46.723ZM65.5648 19.668V7.31997H68.3368V19.668H65.5648ZM85.1156 19.878C84.5556 19.878 84.0026 19.794 83.4566 19.626C82.9246 19.444 82.3156 19.01 81.6296 18.324L80.1176 16.812C79.5016 16.182 78.8226 15.72 78.0806 15.426C77.3526 15.132 76.4356 14.985 75.3296 14.985H74.6786V19.668H71.9066V8.99997L71.6966 7.29897H80.9996C81.8956 7.29897 82.5956 7.41797 83.0996 7.65597C83.6176 7.89397 83.9956 8.20897 84.2336 8.60097C84.4856 8.97897 84.6466 9.38497 84.7166 9.81897C84.7866 10.253 84.8216 10.666 84.8216 11.058V11.457C84.8216 11.765 84.7796 12.108 84.6956 12.486C84.6116 12.864 84.4506 13.235 84.2126 13.599C83.9746 13.963 83.6316 14.271 83.1836 14.523C82.7496 14.775 82.1756 14.922 81.4616 14.964C81.6436 15.062 81.8746 15.216 82.1546 15.426C82.4346 15.622 82.7216 15.839 83.0156 16.077C83.3236 16.315 83.6036 16.532 83.8556 16.728C84.1076 16.924 84.3036 17.064 84.4436 17.148C84.9476 17.442 85.3956 17.645 85.7876 17.757C86.1796 17.869 86.5016 17.932 86.7536 17.946C87.0056 17.96 87.1526 17.967 87.1946 17.967L86.7746 19.668C86.6486 19.71 86.4386 19.752 86.1446 19.794C85.8506 19.85 85.5076 19.878 85.1156 19.878ZM77.8286 13.074C78.3606 13.074 78.8366 13.067 79.2566 13.053C79.6766 13.025 80.0546 12.997 80.3906 12.969C81.0066 12.899 81.4336 12.731 81.6716 12.465C81.9236 12.185 82.0496 11.828 82.0496 11.394V10.911C82.0496 10.463 81.9306 10.085 81.6926 9.77697C81.4546 9.46897 81.0276 9.31497 80.4116 9.31497H74.6786V12.969C75.2946 13.011 75.8616 13.039 76.3796 13.053C76.8976 13.067 77.3806 13.074 77.8286 13.074Z" fill="#F5DEB3"/>
</svg>
