<svg width="96" height="57" viewBox="0 0 96 57" fill="none" xmlns="http://www.w3.org/2000/svg">
<path d="M12.5203 55.2935C8.25897 55.2935 5.12564 55.1055 3.12031 54.7295C1.11497 54.3535 0.112305 53.9148 0.112305 53.4135L3.8723 45.2355C5.31364 45.4862 8.88564 45.7368 14.5883 45.9875C20.3536 46.1755 28.2496 46.2695 38.2763 46.2695H40.0623C42.757 46.2695 44.6683 45.7995 45.7963 44.8595C46.9243 43.8568 47.4883 42.1962 47.4883 39.8775V37.9975C47.4883 35.8041 47.0183 34.2375 46.0783 33.2975C45.201 32.3575 43.1956 31.8875 40.0623 31.8875H18.2543C11.925 31.8875 7.31897 30.7281 4.43631 28.4095C1.55364 26.0282 0.112305 22.1741 0.112305 16.8475V15.3435C0.112305 12.5861 0.613638 10.0481 1.6163 7.72948C2.68164 5.41081 4.46764 3.56215 6.9743 2.18348C9.48097 0.742151 12.9276 0.0214844 17.3143 0.0214844H42.8823C47.1436 0.0214844 50.5903 0.240817 53.2223 0.679482C55.8543 1.11815 57.1703 1.58815 57.1703 2.08948L55.2903 9.98548C53.661 9.79748 49.9636 9.60948 44.1983 9.42148C38.433 9.17082 30.6936 9.04548 20.9803 9.04548L19.9463 8.95148C17.0636 8.95148 15.121 9.54681 14.1183 10.7375C13.1156 11.8655 12.583 13.3068 12.5203 15.0615V16.6595C12.5203 18.7275 13.0843 20.2941 14.2123 21.3595C15.403 22.3621 17.3456 22.8635 20.0403 22.8635H40.9083C44.919 22.8635 48.3343 23.2708 51.1543 24.0855C53.9743 24.9002 56.1363 26.4041 57.6403 28.5975C59.1443 30.7281 59.8963 33.8928 59.8963 38.0915V39.5955C59.8963 44.2955 58.6743 48.0868 56.2303 50.9695C53.849 53.8521 49.6816 55.2935 43.7283 55.2935H12.5203Z" fill="#F5DEB3"/>
<path d="M88.0739 56.2335C85.0032 56.2335 82.3399 55.6068 80.0839 54.3535C77.8279 53.1002 75.6032 51.4082 73.4099 49.2775C71.0285 46.7708 68.1459 43.8881 64.7619 40.6295C63.1952 39.0001 61.5972 37.6528 59.9679 36.5875C58.3385 35.5221 56.4899 34.7075 54.4219 34.1435C52.4165 33.5795 49.9099 33.2975 46.9019 33.2975H42.4839V55.2935H30.0759V7.54148L29.1359 0.0214844H42.4839V24.0855H47.7479C49.0012 24.0855 50.0352 23.9288 50.8499 23.6155C51.6645 23.3021 52.4165 22.8008 53.1059 22.1115C54.8605 20.3568 56.8659 18.1635 59.1219 15.5315C61.3779 12.8995 63.5712 10.2048 65.7019 7.44748C67.8952 4.62748 69.7752 2.15215 71.3419 0.0214844H86.5699L82.7159 5.66148C80.9612 7.47882 79.0812 9.45282 77.0759 11.5835C75.0705 13.7141 73.0965 15.8135 71.1539 17.8815C69.2112 19.8868 67.4565 21.6728 65.8899 23.2395C64.3232 24.7435 63.1639 25.8401 62.4119 26.5295C64.1039 27.0935 65.6392 27.8141 67.0179 28.6915C68.4592 29.5688 70.2139 30.8535 72.2819 32.5455C73.8485 33.7988 75.3525 35.0835 76.7939 36.3995C78.2979 37.7155 80.0212 39.2822 81.9639 41.0995C84.1572 43.1048 86.2252 44.5775 88.1679 45.5175C90.1105 46.4575 91.7399 47.0528 93.0559 47.3035C94.4345 47.5542 95.3119 47.6795 95.6879 47.6795L93.8079 55.2935C93.6199 55.4815 93.0559 55.6695 92.1159 55.8575C91.1759 56.1081 89.8285 56.2335 88.0739 56.2335Z" fill="#F5DEB3"/>
</svg>
