<?xml version="1.0" standalone="no"?>
<!DOCTYPE svg PUBLIC "-//W3C//DTD SVG 20010904//EN"
 "http://www.w3.org/TR/2001/REC-SVG-20010904/DTD/svg10.dtd">
<svg version="1.0" xmlns="http://www.w3.org/2000/svg"
 width="200.000000pt" height="200.000000pt" viewBox="0 0 200.000000 200.000000"
 preserveAspectRatio="xMidYMid meet">
<metadata>
Created by potrace 1.14, written by Peter Selinger 2001-2017
</metadata>
<g transform="translate(0.000000,200.000000) scale(0.100000,-0.100000)"
fill="#000000" stroke="none">
<path d="M0 1000 l0 -1000 1000 0 1000 0 0 1000 0 1000 -1000 0 -1000 0 0
-1000z m143 795 c-3 -9 -8 -14 -10 -11 -3 3 -2 9 2 15 9 16 15 13 8 -4z m37
11 c0 -2 -7 -9 -15 -16 -13 -11 -14 -10 -9 4 5 14 24 23 24 12z m23 -16 c-3
-12 -8 -19 -11 -16 -5 6 5 36 12 36 2 0 2 -9 -1 -20z m31 -5 c-4 -8 -8 -15
-10 -15 -2 0 -4 7 -4 15 0 8 4 15 10 15 5 0 7 -7 4 -15z m67 -302 c12 -16 12
-17 -2 -6 -9 7 -20 9 -24 5 -5 -4 -5 -1 -1 6 9 16 11 15 27 -5z m49 3 c0 -11
-19 -15 -25 -6 -3 5 1 10 9 10 9 0 16 -2 16 -4z m56 -24 c1 -7 0 -8 -3 -2 -10
21 -33 10 -34 -17 -1 -18 -3 -22 -6 -10 -3 10 -2 25 1 33 7 18 38 15 42 -4z
m-100 -41 c-4 -6 -15 -10 -24 -10 -15 1 -15 2 1 6 21 5 22 22 2 29 -8 4 -15
11 -15 17 0 6 10 2 21 -10 12 -11 18 -26 15 -32z m154 29 c0 -5 -9 -14 -20
-20 -14 -7 -20 -7 -20 0 0 5 7 10 16 10 10 0 14 5 10 16 -3 8 -2 12 4 9 6 -3
10 -10 10 -15z m-123 -27 c-3 -10 -5 -4 -5 12 0 17 2 24 5 18 2 -7 2 -21 0
-30z m68 -12 c-3 -6 -14 -10 -23 -10 -15 1 -15 2 1 6 9 2 17 9 17 15 0 6 3 9
6 5 3 -3 3 -10 -1 -16z m325 -446 c11 -13 10 -14 -4 -9 -12 5 -16 0 -17 -17
-1 -17 -3 -19 -6 -6 -2 9 -9 17 -15 17 -6 0 -6 6 2 15 16 19 24 19 40 0z
m-167 -20 c-17 -23 -33 -32 -33 -18 0 10 32 43 42 43 5 0 1 -11 -9 -25z m127
-15 c0 -10 -5 -12 -32 -14 -7 -1 -18 -8 -25 -16 -9 -12 -16 -12 -30 -4 -38 23
-26 39 32 42 33 2 55 -1 55 -8z m-611 -767 c1 37 21 35 21 -3 0 -23 -4 -30
-20 -30 -16 0 -20 6 -19 33 l1 32 8 -30 8 -30 1 28z m51 -3 c0 -16 -4 -30 -9
-30 -4 0 -8 13 -7 30 1 39 16 39 16 0z m50 0 c0 -23 -4 -30 -20 -30 -16 0 -20
7 -20 30 0 23 4 30 20 30 16 0 20 -7 20 -30z m30 0 c0 -16 -4 -30 -10 -30 -5
0 -10 14 -10 30 0 17 5 30 10 30 6 0 10 -13 10 -30z m30 0 c0 -16 -4 -30 -10
-30 -5 0 -10 14 -10 30 0 17 5 30 10 30 6 0 10 -13 10 -30z m30 0 c0 -16 -4
-30 -9 -30 -5 0 -8 14 -7 30 0 17 4 30 8 30 5 0 8 -13 8 -30z m17 -17 c-3 -10
-5 -2 -5 17 0 19 2 27 5 18 2 -10 2 -26 0 -35z"/>
<path d="M161 164 c0 -11 3 -14 6 -6 3 7 2 16 -1 19 -3 4 -6 -2 -5 -13z"/>
</g>
</svg>
