<!-- Generated by IcoMoon.io -->
<svg version="1.1" xmlns="http://www.w3.org/2000/svg" width="512" height="512" viewBox="0 0 512 512">
<title>sass</title>
<g id="icomoon-ignore">
</g>
<path fill="#c69" d="M496.001 248.065c0 132.548-107.452 240.001-240.001 240.001s-240.001-107.452-240.001-240.001c0-132.548 107.452-240.001 240.001-240.001s240.001 107.452 240.001 240.001z"></path>
<path fill="#fff" d="M425.004 110.481c-3.771-15.078-14.449-27.642-30.785-36.44-32.041-16.964-83.558-17.592-130.68-0.628-28.273 10.053-81.674 32.669-121.882 69.737-40.208 37.696-46.49 70.993-43.35 84.186 6.911 36.439 45.235 62.198 75.392 83.559 8.166 5.654 15.708 10.682 21.36 15.708-16.964 8.795-62.827 34.556-75.392 61.57-9.425 21.36-5.027 37.068-1.256 43.978 3.77 8.166 10.054 14.449 16.336 16.336s13.194 2.512 20.104 2.512c27.014 0 53.404-14.449 69.737-38.952s17.592-57.171 10.054-77.276c10.681-2.512 21.99-2.512 34.556-1.256 24.502 3.142 36.44 12.565 42.094 20.104 6.283 8.166 7.538 16.336 6.911 21.36-1.256 9.425-8.795 15.077-12.565 17.592-3.142 1.884-5.654 3.771-5.027 7.538 1.256 5.027 6.283 4.399 8.166 4.399 5.654-1.256 25.759-11.31 27.014-33.925 0.628-13.821-5.027-27.642-15.708-38.952-13.821-14.449-34.556-21.99-58.428-21.36-17.592 0-29.529 1.884-38.952 5.027 0 0-0.628-0.628-0.628-0.628-8.794-9.425-20.732-18.22-31.413-27.014-25.131-18.848-48.377-37.068-47.121-64.082 1.884-33.925 35.184-67.226 99.894-99.266 57.172-28.273 103.665-29.529 128.165-20.732 10.053 3.77 16.964 8.794 19.476 14.449 5.027 10.681 3.142 24.502-5.654 39.58-14.449 25.131-50.889 56.544-106.805 62.827-33.925 3.77-48.377-11.31-49.005-11.937-3.77-4.399-6.282-6.911-10.681-4.399-5.027 2.512-2.512 9.425-1.256 11.937 2.512 6.911 13.194 18.848 31.413 25.131 14.449 5.027 51.517 8.167 97.382-9.425 52.774-21.36 89.213-77.903 78.534-121.254zM208.251 378.12c-0.628 1.256-0.628 2.512-1.256 3.771s-1.256 2.512-1.256 3.771c-2.512 5.654-6.282 11.31-11.309 16.336-14.449 15.708-33.925 20.104-40.208 16.336-1.884-1.256-2.512-3.142-3.143-5.654-1.256-7.538 3.143-22.618 16.336-35.812 15.708-16.336 37.696-28.273 42.722-30.785 1.884 11.31 1.256 21.99-1.884 32.041z"></path>
</svg>
