<svg width="32" height="32" viewBox="0 0 32 32" fill="none" xmlns="http://www.w3.org/2000/svg">
<path d="M15.9998 28.7719C23.0426 28.7719 28.772 23.0427 28.772 16.0002C28.772 8.95768 23.0426 3.228 15.9998 3.228C8.95731 3.228 3.22806 8.95774 3.22806 16.0002C3.22806 23.0426 8.95731 28.7719 15.9998 28.7719ZM15.9998 5.243C21.9314 5.243 26.7575 10.0686 26.7575 16.0002C26.7575 21.9313 21.9314 26.7575 15.9998 26.7575C10.0686 26.7575 5.24306 21.9313 5.24306 16.0002C5.243 10.0686 10.0685 5.243 15.9998 5.243Z" fill="#F5DEB3"/>
<path d="M10.7548 21.3442C10.9789 21.5644 11.2704 21.6736 11.5612 21.6736C11.8597 21.6736 12.1575 21.5586 12.3832 21.3291L15.9997 17.6433L19.6171 21.3291C19.8427 21.5586 20.1406 21.6736 20.4387 21.6736C20.7299 21.6736 21.021 21.5645 21.2451 21.3442C21.6991 20.8989 21.7057 20.1697 21.2602 19.7161L17.6129 16.0002L21.2602 12.2839C21.7057 11.8303 21.6991 11.1014 21.2451 10.656C20.7919 10.2108 20.063 10.2174 19.6171 10.671L15.9997 14.3567L12.3831 10.671C11.9372 10.217 11.2083 10.2108 10.7547 10.656C10.3011 11.1014 10.2941 11.8303 10.7399 12.2839L14.3869 16.0002L10.7399 19.7161C10.2942 20.1697 10.3012 20.8989 10.7548 21.3442Z" fill="#F5DEB3"/>
</svg>
